<svg width="400" height="340" viewBox="0 0 400 340" fill="none" xmlns="http://www.w3.org/2000/svg">
<rect width="400" height="340" rx="6" fill="url(#paint0_linear_0_1)"/>
<g clip-path="url(#clip0_0_1)">
<path d="M260.5 326C297.606 326 327.686 323.197 327.686 319.74C327.686 316.283 297.606 313.48 260.5 313.48C223.395 313.48 193.315 316.283 193.315 319.74C193.315 323.197 223.395 326 260.5 326Z" fill="black" fill-opacity="0.1"/>
<path d="M295.61 65.4147C295.61 65.4147 291.901 69.3696 293.453 70.6519C295.006 71.9342 301.203 76.0476 302.209 73.3389L295.61 65.4147Z" fill="#EF7D78"/>
<path d="M314.48 74.0593C314.48 74.0593 314.48 65.7461 303.237 59.3922C303.237 59.3922 298.672 54.4864 295.847 53.8093C293.022 53.1321 287.027 53.9317 287.372 55.9272C287.717 57.9227 291.369 58.1532 294.029 58.2468C296.688 58.3405 297.228 61.1932 297.228 61.1932C297.228 61.1932 293.525 64.8384 294.029 66.6826C294.197 67.2232 294.495 67.7144 294.895 68.1136C295.296 68.5129 295.788 68.808 296.329 68.9734C296.329 68.9734 296.602 70.7239 299.585 71.4083C299.996 72.5083 300.753 73.4441 301.742 74.0737C302.275 74.3488 302.858 74.513 303.456 74.5563C304.054 74.5997 304.654 74.5213 305.221 74.3258C305.221 74.3258 305.868 81.8395 314.48 74.0593Z" fill="#FDA092"/>
<path d="M296.652 68.2747C297.78 65.8221 299.511 63.6975 301.684 62.101" stroke="#D04949" stroke-width="1.32" stroke-linecap="round" stroke-linejoin="round"/>
<path d="M299.765 70.6519C300.905 68.4518 302.579 66.5741 304.632 65.1914" stroke="#D04949" stroke-width="1.32" stroke-linecap="round" stroke-linejoin="round"/>
<path d="M304.632 71.4587C304.632 71.4587 306.623 72.8347 308.399 72.3376" stroke="#D04949" stroke-width="1.32" stroke-linecap="round" stroke-linejoin="round"/>
<path d="M306.515 72.4457L305.415 74.0593" stroke="#D04949" stroke-width="1.32" stroke-linecap="round" stroke-linejoin="round"/>
<path d="M312.324 75.7307L314.48 73.339C314.48 73.339 333.538 105.619 330.72 113.558C328.843 118.839 307.069 117.931 307.069 117.931L304.711 97.0397L314.214 98.0482L305.962 76.2998L312.324 75.7307Z" fill="#FDA092"/>
<path d="M310.778 97.7096L318.183 117.722C314.482 117.982 310.77 118.052 307.062 117.931L304.704 97.0397L310.778 97.7096Z" fill="#EF7D78"/>
<path d="M239.761 298.056C236.634 305.087 234.312 312.464 234.154 320.813L263.527 320.957C263.656 313.083 260.321 306.038 255.159 299.98L239.761 298.056Z" fill="#3D6A9F"/>
<path d="M262.837 314.452L234.65 314.755C234.359 316.762 234.193 318.785 234.154 320.813L263.527 320.957C263.557 318.775 263.316 316.597 262.808 314.474L262.837 314.452Z" fill="#D4EFF9"/>
<path d="M263.527 232.033L254.944 301.737C249.696 304.043 244.369 303.675 238.978 301.233L243.348 232.198L263.527 232.033Z" fill="#FDA092"/>
<path d="M262.233 242.579C255.671 241.987 249.199 240.638 242.946 238.559L243.348 232.198L263.527 232.033L262.233 242.579Z" fill="#EF7D78"/>
<path d="M272.34 299.98L287.372 301.665C296.652 303.193 302.274 307.429 305.66 317.413L267.646 317.111C267.445 311.52 269.084 304.497 272.34 299.98Z" fill="#3D6A9F"/>
<path d="M267.826 312.752L304.409 314.193C304.855 315.187 305.272 316.253 305.66 317.391L267.646 317.11C267.597 315.655 267.657 314.198 267.826 312.752Z" fill="#D4EFF9"/>
<path d="M293.525 228.366L287.429 302.566C282.206 303.732 276.766 303.468 271.679 301.802L273.397 232.198L293.525 228.366Z" fill="#FDA092"/>
<path d="M292.49 240.555C286.124 241.969 279.636 242.758 273.117 242.911L273.39 232.198L293.525 228.366L292.526 240.613L292.49 240.555Z" fill="#EF7D78"/>
<path d="M241.335 181.908L236.49 232.501C247.559 235.436 259.017 236.615 270.45 235.995L270.716 233.985C279.917 235.736 289.298 236.96 298.752 236.06L297.17 181.311C280.032 184.495 260.716 183.256 241.321 181.937L241.335 181.908Z" fill="#E4B586"/>
<path d="M297.271 184.142C284.683 187.095 261.327 191.194 240.803 187.477L241.335 181.908C260.745 183.227 280.047 184.466 297.184 181.282L297.271 184.163V184.142Z" fill="#CF9168"/>
<path d="M270.744 233.992L273.62 205.249L282.555 204.139C278.652 205.703 278.343 230.7 285.912 236.103L284.626 236.017C281.125 235.649 281.355 235.678 277.631 235.174L270.73 233.992H270.744Z" fill="#CF9168"/>
<path d="M257.682 195.949L259.192 195.985C260.16 194.762 261.209 193.607 262.334 192.527C260.885 193.401 259.508 194.389 258.214 195.48L257.682 195.949Z" fill="#B0AB1E"/>
<path d="M266.654 195.833L265.597 193.924L265.245 193.341L265.044 192.988L264.713 192.469L264.116 191.482L263.29 190.243L262.988 189.768L262.83 189.544C262.219 188.644 261.6 187.787 260.996 186.98L260.925 186.879L260.644 186.519L259.631 185.208L259.156 184.631L258.905 184.314L258.624 183.99L258.193 183.464L257.215 182.348L256.985 182.088L256.82 181.901L256.561 181.627L255.224 180.187L254.606 179.574L254.347 179.3L254.074 179.048C253.441 178.414 252.866 177.881 252.377 177.442L250.602 175.936C256.719 179.956 261.176 185.798 264.102 190.639C265.119 192.313 266.048 194.04 266.884 195.812H266.654V195.833Z" fill="#B0AB1E"/>
<path d="M236.533 192.851L235.096 194.573L236.871 192.412L237.13 192.123L238.072 191.072L238.51 190.611L238.74 190.358L238.992 190.106L239.395 189.681L240.286 188.802L240.494 188.594L240.645 188.449L240.883 188.241L242.09 187.117L242.651 186.641L242.881 186.432L243.125 186.238C243.701 185.748 244.218 185.337 244.649 185.006L246.231 183.875C242.525 185.95 239.246 188.713 236.569 192.015L236.476 192.837L236.533 192.851Z" fill="#B0AB1E"/>
<path d="M268.113 192.138V192.346H266.891L268.12 192.116L268.113 192.138Z" fill="#B0AB1E"/>
<path d="M268.156 190.048H268.027L268.156 189.984V190.048Z" fill="#B0AB1E"/>
<path d="M290.369 193.787H290.549L290.592 191.302L290.635 190.661V190.272L290.686 189.696L290.75 188.601L290.894 187.196L290.937 186.67L290.973 186.404C291.081 185.381 291.218 184.401 291.369 183.457V183.342L291.448 182.924L291.714 181.382L291.858 180.662L291.929 180.287L292.016 179.898L292.152 179.272L292.476 177.91L292.548 177.6L292.605 177.37L292.706 177.031L293.195 175.259L293.439 174.481L293.532 174.143L293.647 173.818C293.906 173.012 294.151 172.32 294.366 171.751L295.186 169.741C291.836 175.648 290.686 182.485 290.377 187.837C290.266 189.814 290.266 191.796 290.377 193.773L290.369 193.787Z" fill="#B0AB1E"/>
<path d="M295.208 192.404L294.489 192.577C284.561 194.789 268.2 193.982 250.638 192.577L249.811 192.512V98.8622L292.763 97.5583L294.381 160.196L294.819 177.147L295.208 192.404Z" fill="#EAEAEA"/>
<path d="M295.207 159.929L294.812 177.175L294.46 192.577C284.532 194.789 268.171 193.982 250.609 192.577L259.02 122.231C259.02 122.231 270.191 168.041 294.352 160.225L295.207 159.929Z" fill="#DFDFDF"/>
<path d="M260.357 84.5626C260.357 84.5626 262.003 92.7318 258.387 95.1883C258.387 95.1883 263.728 108.926 274.497 107.003C285.266 105.079 280.967 95.8223 280.967 95.8223L277.078 93.6611C277.078 93.6611 276.431 92.4437 276.165 88.0781L260.357 84.5626Z" fill="#FDA092"/>
<path d="M260.716 89.4108C264.124 93.517 271.348 99.9357 280.952 95.8007L277.099 93.6395C277.099 93.6395 276.452 92.422 276.186 88.0565L260.371 84.5482C260.66 86.152 260.776 87.7822 260.716 89.4108Z" fill="#EF7D78"/>
<path d="M287.357 67.9073C290.434 67.4607 293.216 69.0887 293.576 71.5092C293.935 73.9297 291.728 76.3214 288.659 76.7752C285.589 77.2291 282.807 75.5938 282.448 73.1373C282.088 70.6808 284.288 68.3611 287.357 67.9073Z" fill="#EF7D78"/>
<path d="M265.633 47.369C282.009 45.2078 285.273 52.9087 287.293 64.6582C289.313 76.4077 285.898 88.431 276.093 90.0879C265.353 91.9321 256.453 84.1087 254.433 72.3592C252.413 60.6097 255.77 48.6873 265.633 47.369Z" fill="#FDA092"/>
<path d="M251.673 77.863C251.673 77.863 245.771 65.6741 248.273 56.3451C250.774 47.0161 257.956 35.9653 261.859 36.1022C265.763 36.2391 263.836 39.8338 263.836 39.8338C263.836 39.8338 269.652 34.2508 274.885 35.0865C280.118 35.9221 277.89 38.5948 277.89 38.5948C277.89 38.5948 284.36 36.9163 286.682 39.7402C289.004 42.5641 285.869 47.0953 285.869 47.0953C285.869 47.0953 289.392 46.447 290.837 49.487C292.354 52.6855 288.68 56.6909 288.68 56.6909C289.089 62.3507 288.775 68.0398 287.746 73.6199C287.415 66.9275 287.171 62.5548 284.798 56.3307C276.991 55.4734 268.803 56.1506 259.818 57.4977L259.221 67.3309C258.092 71.5092 256.755 74.3403 257.697 77.8558L251.673 77.863Z" fill="#573333"/>
<path d="M254.081 43.3781C256.806 39.0558 259.789 36.0302 261.859 36.1022C265.763 36.2463 263.836 39.8338 263.836 39.8338C263.836 39.8338 269.652 34.2508 274.885 35.0865C280.118 35.9221 277.89 38.5948 277.89 38.5948C277.89 38.5948 284.36 36.9163 286.682 39.7402C289.004 42.5641 285.869 47.0953 285.869 47.0953C285.869 47.0953 289.392 46.447 290.837 49.487C291.097 50.0505 291.223 50.6672 291.203 51.288C290.534 50.2341 289.572 49.3997 288.435 48.8877C287.298 48.3756 286.036 48.2083 284.805 48.4064C286.107 36.1166 277.106 40.7343 277.106 40.7343C275.058 32.349 263.491 42.42 263.491 42.42C262.362 37.968 257.668 40.583 254.081 43.4141V43.3781Z" fill="#784E47"/>
<path d="M259.559 52.5414L258.25 52.3037L253.765 77.6325L255.073 77.863L259.559 52.5414Z" fill="#E43B3F"/>
<path d="M271.708 52.2821C271.577 51.7768 271.284 51.3287 270.874 51.007C270.468 50.6724 269.961 50.4868 269.436 50.4811H259.063C258.843 50.474 258.624 50.5177 258.423 50.6089C258.222 50.7001 258.045 50.8363 257.905 51.007C257.775 51.1891 257.687 51.3983 257.649 51.619C257.61 51.8398 257.622 52.0664 257.683 52.2821C257.898 53.1897 258.179 54.3496 258.473 55.567C258.998 57.4991 260.122 59.2139 261.683 60.4636C263.244 61.7133 265.161 62.433 267.157 62.5187C271.032 62.5187 273.426 59.4067 272.498 55.567C272.204 54.3496 271.931 53.1897 271.708 52.2821Z" fill="#E43B3F"/>
<path d="M270.974 53.9461C270.857 53.5121 270.605 53.1266 270.255 52.8456C269.905 52.5646 269.474 52.4025 269.026 52.3829H260.4C260.206 52.3722 260.013 52.409 259.837 52.49C259.661 52.5709 259.507 52.6937 259.389 52.8476C259.27 53.0015 259.191 53.182 259.158 53.3734C259.125 53.5648 259.139 53.7614 259.199 53.9461C259.307 54.3784 259.429 54.8826 259.552 55.3869C259.99 57.0123 260.933 58.4554 262.245 59.5072C263.557 60.559 265.169 61.1647 266.848 61.2365C270.09 61.2365 272.096 58.6287 271.327 55.4085C271.24 54.8826 271.082 54.3784 270.974 53.9461Z" fill="#214E78"/>
<path d="M269.738 53.6292C269.693 53.4699 269.6 53.3287 269.471 53.2254C269.342 53.122 269.184 53.0617 269.019 53.0529H263.987C263.915 53.048 263.844 53.061 263.778 53.0905C263.712 53.12 263.655 53.1652 263.611 53.2221C263.567 53.2791 263.538 53.3459 263.525 53.4169C263.513 53.4879 263.519 53.5608 263.541 53.6292V53.73C263.586 53.8893 263.679 54.0305 263.808 54.1338C263.937 54.2372 264.095 54.2975 264.26 54.3063H269.328C269.4 54.3112 269.472 54.2982 269.537 54.2687C269.603 54.2392 269.66 54.194 269.704 54.1371C269.748 54.0801 269.778 54.0133 269.79 53.9423C269.802 53.8713 269.796 53.7984 269.774 53.73L269.738 53.6292Z" fill="#CADFF4"/>
<path d="M288.141 52.2821C288.007 51.7781 287.715 51.3309 287.307 51.007C286.902 50.6724 286.394 50.4868 285.869 50.4811H275.496C275.276 50.474 275.057 50.5177 274.856 50.6089C274.656 50.7001 274.478 50.8363 274.339 51.007C274.208 51.1891 274.121 51.3983 274.082 51.619C274.043 51.8398 274.055 52.0664 274.116 52.2821C274.331 53.1897 274.612 54.3496 274.907 55.567C275.431 57.4991 276.555 59.2139 278.116 60.4636C279.677 61.7133 281.594 62.433 283.591 62.5187C287.465 62.5187 289.852 59.4067 288.932 55.567C288.637 54.3496 288.364 53.1897 288.141 52.2821Z" fill="#E43B3F"/>
<path d="M287.408 53.9461C287.291 53.5121 287.039 53.1266 286.688 52.8456C286.338 52.5646 285.908 52.4025 285.46 52.3829H276.833C276.64 52.3722 276.446 52.409 276.27 52.49C276.094 52.5709 275.94 52.6937 275.822 52.8476C275.704 53.0015 275.625 53.182 275.592 53.3734C275.559 53.5648 275.573 53.7614 275.633 53.9461C275.74 54.3784 275.855 54.8826 275.985 55.3869C276.423 57.0123 277.367 58.4554 278.679 59.5072C279.991 60.559 281.603 61.1647 283.281 61.2365C286.531 61.2365 288.536 58.6287 287.76 55.4085C287.638 54.8826 287.516 54.3784 287.408 53.9461Z" fill="#214E78"/>
<path d="M286.171 53.6292C286.127 53.47 286.033 53.3288 285.904 53.2254C285.775 53.1221 285.617 53.0617 285.452 53.0529H280.37C280.299 53.0498 280.228 53.0639 280.163 53.0939C280.099 53.1239 280.042 53.1691 279.998 53.2255C279.955 53.282 279.925 53.3481 279.912 53.4183C279.899 53.4886 279.904 53.5609 279.924 53.6292C279.928 53.6628 279.928 53.6965 279.924 53.7301C279.969 53.8893 280.063 54.0305 280.191 54.1339C280.32 54.2372 280.478 54.2975 280.643 54.3064H285.675C285.747 54.3112 285.819 54.2983 285.884 54.2688C285.95 54.2393 286.007 54.194 286.051 54.1371C286.095 54.0802 286.125 54.0133 286.137 53.9423C286.149 53.8713 286.144 53.7985 286.121 53.7301L286.171 53.6292Z" fill="#CADFF4"/>
<path d="M275.719 50.7981C273.785 50.1965 271.715 50.1965 269.781 50.7981V52.383C271.706 51.7232 273.794 51.7232 275.719 52.383V50.7981Z" fill="#E43B3F"/>
<path d="M254.915 69.593C258.243 69.9387 260.731 72.3304 260.465 74.931C260.199 77.5316 257.273 79.3614 253.944 79.0228C250.616 78.6842 248.129 76.2853 248.395 73.6848C248.661 71.0842 251.587 69.2544 254.915 69.593Z" fill="#FDA092"/>
<path d="M270.996 63.3977C266.446 62.2451 263.714 64.1181 262.427 67.3598C264.85 65.7206 267.79 65.0309 270.687 65.422L270.996 63.3977Z" fill="#573333"/>
<path d="M279.73 63.023C283.267 62.1225 286.2 62.3962 286.459 66.2071C284.712 64.2836 281.865 64.3845 279.436 65.393L279.73 63.023Z" fill="#573333"/>
<path d="M278.975 66.2072C277.797 70.7168 280.413 74.1314 280.557 75.1327C280.701 76.1341 279.709 77.3587 278.774 78.1079" stroke="#D04949" stroke-width="1.27" stroke-linecap="round" stroke-linejoin="round"/>
<path d="M267.898 72.8058C268.469 72.8058 268.933 72.093 268.933 71.2138C268.933 70.3345 268.469 69.6217 267.898 69.6217C267.326 69.6217 266.862 70.3345 266.862 71.2138C266.862 72.093 267.326 72.8058 267.898 72.8058Z" fill="#30385B"/>
<path d="M282.577 69.6289C283.152 69.6289 283.619 70.3493 283.619 71.2138C283.619 72.0782 283.152 72.8058 282.577 72.8058C282.002 72.8058 281.542 72.0854 281.542 71.2138C281.542 70.3421 282.023 69.6289 282.577 69.6289Z" fill="#30385B"/>
<path d="M278.673 80.4924C275.87 80.7373 272.779 79.6207 269.594 78.1079C269.594 78.1079 268.48 83.9719 272.47 85.1317C278.328 86.8462 278.673 80.4924 278.673 80.4924Z" fill="white"/>
<path d="M259.738 92.566C267.581 113.536 269.414 150.406 268.034 195.754C257.433 196.579 246.768 195.605 236.49 192.873C240.624 161.529 241.558 130.552 241.184 101.384C246.612 97.5655 250.084 95.5412 259.738 92.6309V92.566Z" fill="#B0AB1E"/>
<path d="M265.382 116.224C265.382 116.224 265.31 102.09 259.983 91.9105C259.983 91.9105 253.873 93.0992 251.594 95.7646L252.924 110.691C252.924 110.691 260.953 110.151 265.382 116.224Z" fill="#DFD153"/>
<path d="M256.144 195.905C255.209 194.619 254.438 193.22 253.851 191.742L255.145 190.949L256.439 190.229L255.001 190.704C254.541 190.877 254.095 191.079 253.65 191.295L253.075 189.789C252.866 189.177 252.665 188.558 252.464 187.945L252.075 186.54C253.063 186.32 254.069 186.192 255.08 186.159H256.597L258.078 186.31L256.518 185.784C254.954 185.296 253.325 185.053 251.687 185.064L251.45 184.178L250.731 181.029C251.662 181.012 252.593 181.097 253.506 181.282L252.068 180.77L250.63 180.403C250.041 177.327 249.789 175.108 249.789 175.108C251.878 175.156 253.942 175.573 255.885 176.34V177.406L255.986 178.487L256.166 176.441C258.228 177.198 260.22 178.135 262.118 179.243L261.701 180.424L261.37 181.656C261.679 180.936 262.039 180.158 262.434 179.423L263.807 180.28L264.584 180.828C263.635 182.209 262.844 183.693 262.226 185.251C263.153 183.881 264.25 182.635 265.489 181.541C266.502 182.299 267.44 183.15 268.293 184.084L268.164 190.07L268.034 190.135H268.164L268.12 192.195L266.891 192.426H268.113L268.041 195.819L266.891 195.884C266.055 194.112 265.126 192.385 264.109 190.711C261.183 185.87 256.726 180.028 250.609 176.008L252.384 177.514C252.873 177.953 253.448 178.487 254.081 179.12L254.354 179.373L254.613 179.646L255.231 180.259L256.568 181.699L256.827 181.973L256.992 182.16L257.215 182.42L258.2 183.536L258.631 184.062L258.912 184.386L259.156 184.703L259.638 185.28L260.651 186.591L260.932 186.951L261.004 187.052C261.608 187.859 262.226 188.716 262.83 189.616L262.995 189.84L263.297 190.315L264.124 191.554L264.72 192.541L265.051 193.06L265.252 193.413L265.604 193.996L266.661 195.905C264.203 196.064 261.715 196.129 259.199 196.078C260.167 194.856 261.217 193.7 262.341 192.62C260.892 193.495 259.515 194.483 258.222 195.574L257.69 196.042H256.575L256.123 196.006L256.144 195.905Z" fill="#E3D85C"/>
<path d="M240.013 155.564C240.962 154.91 241.985 154.371 243.061 153.957C243.747 155.288 244.273 156.695 244.628 158.15C244.543 156.628 244.302 155.12 243.909 153.647L244.628 153.388L245.915 153.021C246.037 153.741 246.138 154.526 246.188 155.261L246.238 154.101L246.202 152.949C247.952 152.511 249.741 152.248 251.543 152.163L251.177 153.986L251.529 153.078L251.809 152.156C253.511 152.029 255.22 152.237 256.841 152.769C256.841 152.769 256.123 154.627 254.879 157.141L253.642 157.055L252.399 157.098C253.16 157.199 253.908 157.385 254.627 157.653L253.312 160.203L252.909 160.923C251.644 160.46 250.31 160.216 248.963 160.203H247.611L248.812 160.484L249.998 160.88C250.789 161.185 251.546 161.574 252.255 162.04L251.608 163.157L250.674 164.597L249.854 165.75C249.559 165.44 249.257 165.145 248.941 164.864L247.963 164.064L248.804 165.03L249.617 166.074C248.642 167.447 247.441 168.643 246.066 169.611L245.26 168.134C244.523 166.838 243.692 165.598 242.773 164.424C243.665 166.289 244.422 168.215 245.038 170.188L244.678 170.353L243.78 170.649L242.924 170.821C242.872 170.19 242.783 169.562 242.658 168.941L242.385 167.645L242.5 169.222C242.5 169.77 242.536 170.317 242.5 170.865C241.274 170.979 240.037 170.86 238.855 170.512L238.963 169.431L239.265 165.339L239.855 164.727L240.271 164.316L240.516 164.064L240.904 163.704L241.623 162.984L242.572 162.134L242.924 161.802L243.104 161.651C243.823 161.031 244.491 160.455 245.167 159.922L245.246 159.85L245.555 159.619L246.669 158.755L247.187 158.388L247.46 158.179L247.755 157.977L248.222 157.638L249.265 156.918L249.502 156.76L249.682 156.644L249.955 156.479L251.4 155.607L252.032 155.24L252.305 155.074L252.579 154.93C253.233 154.555 253.815 154.245 254.304 154L256.065 153.179C250.314 154.995 245.368 158.849 241.889 162.249C240.926 163.185 240.077 164.093 239.359 164.914L239.891 157.782L240.013 155.535V155.564Z" fill="#E3D85C"/>
<path d="M237.454 185.078C238.806 184.489 240.209 184.024 241.645 183.688V185.546L241.824 184.588L241.932 183.63C243.593 183.188 245.325 183.075 247.029 183.299C247.029 183.299 246.633 185.265 245.893 187.96L244.664 188.104L243.449 188.377C244.216 188.331 244.985 188.374 245.742 188.507L244.923 191.259L244.649 192.023C243.322 191.792 241.965 191.792 240.638 192.023L239.315 192.304L240.545 192.354L241.781 192.527C242.614 192.681 243.428 192.923 244.211 193.247L243.794 194.429L240.674 193.816L236.598 192.837L236.95 192.404L237.209 192.116L238.151 191.064L238.589 190.603L238.819 190.351L239.071 190.099L239.474 189.674L240.365 188.795L240.573 188.586L240.724 188.442L240.962 188.233L242.169 187.11L242.73 186.634L242.96 186.425L243.204 186.231C243.78 185.741 244.297 185.33 244.736 184.999L246.31 183.868C242.604 185.943 239.325 188.705 236.648 192.008L237.482 185.064L237.454 185.078Z" fill="#E3D85C"/>
<path d="M258.049 126.792C256.968 126.356 255.806 126.154 254.642 126.201C254.642 126.201 254.721 127.642 254.965 129.659L255.777 129.846L256.568 130.134C256.056 130.044 255.534 130.022 255.015 130.069L255.303 132.115L255.418 132.692C256.329 132.618 257.245 132.713 258.121 132.973L258.984 133.261L258.15 133.217L257.301 133.261C256.72 133.317 256.146 133.438 255.591 133.621L255.77 134.529C255.864 134.925 255.957 135.328 256.058 135.724L256.338 136.697C256.597 136.538 256.856 136.387 257.115 136.257L257.927 135.89L257.172 136.402L256.453 136.963C256.777 138.107 257.295 139.187 257.984 140.155L258.818 139.283C259.575 138.53 260.382 137.83 261.234 137.187C260.25 138.326 259.342 139.529 258.516 140.789L258.718 140.983L259.228 141.365L259.746 141.66C259.925 141.221 260.112 140.803 260.321 140.392L260.781 139.542L260.371 140.623C260.234 140.998 260.105 141.387 259.99 141.768C261.497 142.347 263.154 142.405 264.699 141.934C265.356 140.316 265.81 138.622 266.05 136.891H265.734C265.092 136.835 264.446 136.847 263.807 136.927C264.556 136.681 265.326 136.505 266.108 136.402L266.144 135.89C266.144 135.638 266.144 135.393 266.144 135.17V134.874L265.324 135.119L264.533 135.422C265.037 135.092 265.569 134.808 266.122 134.572C266.079 134.063 265.97 133.562 265.799 133.081C265.264 131.816 264.421 130.707 263.347 129.853C262.614 130.654 261.97 131.534 261.428 132.475C261.814 131.432 262.295 130.426 262.866 129.471L262.441 129.14L261.723 128.629C261.478 129.126 261.255 129.637 261.061 130.141L261.277 129.313L261.55 128.521C260.519 127.861 259.42 127.315 258.272 126.892L258.114 128.247V127.526V126.806L258.049 126.792ZM256.029 127.598L255.066 126.676C258.401 129.104 260.745 132.792 262.255 135.876C263.128 137.66 263.85 139.516 264.411 141.423L263.692 139.643L262.973 137.979L262.794 137.605L262.693 137.381L262.52 137.05L262.211 136.423L261.787 135.638L261.629 135.335L261.543 135.191C261.227 134.622 260.903 134.082 260.587 133.57L260.551 133.506L260.457 133.275L259.925 132.447L259.674 132.079L259.544 131.885L259.393 131.683L259.171 131.352L258.646 130.631L258.531 130.473L258.488 130.422L258.437 130.35L258.301 130.185L257.582 129.291L257.251 128.902L257.115 128.737L256.964 128.578C256.626 128.182 256.317 127.858 256.058 127.577L256.029 127.598Z" fill="#E3D85C"/>
<path d="M239.359 164.972V165.361L239.948 164.749L240.365 164.338L240.609 164.086L240.998 163.726L241.716 163.006L242.665 162.155L243.018 161.824L243.197 161.673C243.916 161.053 244.585 160.477 245.26 159.944L245.34 159.872L245.649 159.641L246.763 158.777L247.28 158.409L247.554 158.201L247.848 157.999L248.316 157.66L249.358 156.94L249.595 156.781L249.775 156.666L250.048 156.5L251.4 155.607L252.032 155.24L252.305 155.074L252.579 154.93C253.233 154.555 253.815 154.246 254.304 154.001L256.065 153.179C250.314 154.995 245.368 158.849 241.889 162.249C240.926 163.186 240.077 164.093 239.359 164.915V164.972Z" fill="#B0AB1E"/>
<path d="M287.357 97.9761V93.6538L310.059 96.8451L313.359 124.141C305.451 125.632 298.421 126.964 293.554 127.742L287.357 97.9761Z" fill="#D4C548"/>
<path d="M277.351 92.566C287.235 128.038 289.909 162.163 289.097 193.917C292.788 193.671 296.455 193.146 300.067 192.347C303.007 155.038 298.629 124.811 294.417 94.6984C288.775 93.6475 283.076 92.9259 277.351 92.5372V92.566Z" fill="#B0AB1E"/>
<path d="M276.495 91.9105L283.066 116.224C284.733 112.437 287.791 109.439 291.606 107.853C291.606 107.853 286.337 95.4548 285.021 93.6539C283.706 91.8529 278.278 91.608 276.495 91.9105Z" fill="#DFD153"/>
<path d="M289.083 174.38L290.751 172.457L291.807 174.164L291.419 173.184L290.966 172.248C292.26 170.811 293.814 169.633 295.545 168.776C295.545 168.776 296.315 170.8 297.184 173.703L296.113 174.596L295.136 175.605C295.825 175.089 296.571 174.652 297.357 174.301L298.184 177.305L298.371 178.162C296.992 178.79 295.724 179.64 294.618 180.676L293.525 181.75C293.914 181.505 294.309 181.267 294.704 181.029L295.962 180.417C296.829 180.038 297.732 179.75 298.658 179.56L298.96 180.929C299.061 181.541 299.161 182.16 299.269 182.773L299.449 184.307C298.982 184.307 298.514 184.307 298.054 184.307L296.66 184.458L298.097 184.545L299.535 184.725C299.756 186.567 299.663 188.432 299.262 190.243L297.515 189.724C295.949 189.292 294.354 188.977 292.742 188.781C294.842 189.534 296.884 190.439 298.852 191.489L298.687 191.907L298.22 192.75L297.925 192.815L296.796 192.995L295.998 192.375L294.812 191.583L296.077 192.721L296.408 193.06L295.373 193.226L290.564 193.751L290.607 191.266L290.65 190.625V190.236L290.7 189.66L290.765 188.565L290.909 187.16L290.952 186.634L290.988 186.367C291.096 185.345 291.232 184.365 291.383 183.421V183.306L291.462 182.888L291.728 181.346L291.872 180.626L291.944 180.251L292.03 179.862L292.167 179.236L292.49 177.874L292.562 177.564L292.62 177.334L292.72 176.995L293.209 175.223L293.453 174.445L293.547 174.106L293.662 173.782C293.921 172.975 294.165 172.284 294.381 171.715L295.2 169.705C291.85 175.612 290.7 182.449 290.391 187.801C290.281 189.778 290.281 191.76 290.391 193.737L289.119 193.874L289.248 182.268L289.593 182.456L289.248 182.175V181.858L289.097 174.337L289.083 174.38Z" fill="#E3D85C"/>
<path d="M292.39 123.283C293.251 122.709 294.237 122.348 295.265 122.231C295.265 122.231 295.531 123.672 295.775 125.61L295.1 125.905L294.467 126.294C294.902 126.137 295.357 126.043 295.819 126.013L296.034 128.023V128.592C295.226 128.648 294.437 128.871 293.719 129.248L293.001 129.651L293.719 129.493L294.438 129.406C294.968 129.382 295.498 129.418 296.02 129.515L296.077 130.415V131.604V132.583C295.819 132.461 295.553 132.36 295.294 132.266L294.503 132.036L295.279 132.411L296.07 132.857C296.055 133.979 295.848 135.09 295.459 136.142L294.525 135.422C293.694 134.808 292.825 134.25 291.922 133.75C293.052 134.705 294.122 135.728 295.128 136.812L294.999 137.021L294.632 137.468L294.251 137.821C293.993 137.424 293.734 137.05 293.453 136.682L292.85 135.962L293.461 136.942C293.669 137.288 293.863 137.662 294.057 137.986C292.842 138.764 291.381 139.059 289.96 138.815C289.013 137.359 288.229 135.803 287.623 134.175L287.897 134.118C288.451 133.962 289.024 133.88 289.6 133.873C288.89 133.739 288.167 133.678 287.444 133.693L287.293 133.203C287.235 132.965 287.178 132.727 287.113 132.483L287.07 132.194L287.839 132.317L288.608 132.497C288.099 132.249 287.567 132.051 287.02 131.906C286.965 131.403 286.977 130.894 287.056 130.393C287.225 129.135 287.72 127.942 288.493 126.936C289.331 127.606 290.099 128.359 290.786 129.183C290.203 128.238 289.544 127.342 288.817 126.503L289.111 126.129L289.651 125.524C289.981 125.97 290.298 126.431 290.578 126.885L290.197 126.122L289.78 125.401C290.532 124.626 291.372 123.942 292.282 123.362L292.735 124.645L292.598 123.924L292.418 123.247L292.39 123.283ZM294.352 123.78L294.977 122.75C292.605 125.567 291.383 129.45 290.772 132.634C290.403 134.498 290.187 136.389 290.125 138.289L290.334 136.473L290.6 134.766L290.671 134.384L290.715 134.154L290.786 133.808L290.916 133.16L291.11 132.338L291.182 132.029L291.225 131.877C291.369 131.279 291.527 130.718 291.692 130.177V130.112L291.771 129.875L292.052 129.003L292.188 128.614L292.26 128.405L292.339 128.189L292.469 127.836L292.763 127.116L292.835 126.943V126.885V126.82L292.914 126.633L293.338 125.668L293.54 125.257L293.626 125.07L293.712 124.897C293.921 124.472 294.122 124.104 294.287 123.809L294.352 123.78Z" fill="#E3D85C"/>
<path d="M300.915 159.252V158.813C300.03 159.994 299.216 161.228 298.478 162.508L298.802 162.739L299.614 163.207L300.412 163.546L300.973 162.026L300.93 159.252H300.915Z" fill="#E3D85C"/>
<path d="M300.879 158.366L300.7 153.208L300.304 152.725L300.053 152.445L299.14 151.4L298.708 150.939L298.486 150.687L298.234 150.435L297.846 150.017L296.969 149.124L296.767 148.915L296.624 148.771L296.386 148.562L295.2 147.438L294.654 146.962L294.424 146.753L294.187 146.552C293.626 146.062 293.116 145.651 292.691 145.32L291.139 144.182C294.793 146.294 298.019 149.075 300.649 152.38L300.391 148.108V148.173V148.065L300.247 145.745C298.807 145.07 297.307 144.53 295.768 144.131V145.932L295.61 145.003L295.517 144.066C293.883 143.596 292.177 143.434 290.485 143.591C290.485 143.591 290.837 145.507 291.527 148.129L292.749 148.309L293.957 148.612C293.195 148.545 292.428 148.564 291.671 148.67L292.44 151.35L292.691 152.07C294.022 151.889 295.373 151.933 296.688 152.2L298.004 152.509H296.775L295.538 152.639C294.71 152.764 293.896 152.971 293.108 153.259L293.518 154.447C293.719 154.966 293.928 155.485 294.136 156.003L294.704 157.257C295.057 157.026 295.423 156.81 295.775 156.608L296.89 156.061L295.876 156.781L294.877 157.595C295.553 159.104 296.484 160.483 297.63 161.673L298.708 160.448C299.406 159.685 300.148 158.964 300.93 158.287L300.879 158.366Z" fill="#E3D85C"/>
<path d="M161.785 293.547L159.701 307.025C162.152 310.245 165.833 310.973 170.484 309.777L174.028 302.141L161.807 293.547H161.785Z" fill="#363440"/>
<path d="M195.809 293.547L193.725 307.025C196.176 310.245 199.857 310.973 204.508 309.777L208.052 302.141L195.831 293.547H195.809Z" fill="#363440"/>
<path d="M227.598 226.205L235.894 235.872L231.494 240.058L227.9 235.058L211.272 290.24C210.796 291.819 209.826 293.204 208.507 294.191C207.187 295.177 205.586 295.714 203.94 295.722L164.567 295.924L169.434 301.413L165.049 303.79L156.487 293.921C156.133 293.596 155.808 293.239 155.517 292.855C154.798 291.887 154.314 290.764 154.106 289.576C153.897 288.388 153.97 287.167 154.316 286.011L171.641 228.503C172.119 226.924 173.088 225.54 174.408 224.554C175.727 223.567 177.327 223.03 178.974 223.021L221.157 222.812C222.362 222.805 223.551 223.082 224.63 223.62C225.709 224.158 226.647 224.942 227.368 225.91L227.598 226.205Z" fill="#F19E44"/>
<path d="M227.835 226.5L231.573 230.823L184.315 230.959C182.974 230.964 181.668 231.389 180.581 232.176C179.494 232.963 178.68 234.072 178.255 235.347L170.024 259.955C169.932 260.226 169.789 260.477 169.601 260.693C169.413 260.909 169.185 261.086 168.929 261.213C168.673 261.341 168.394 261.416 168.109 261.436C167.824 261.456 167.538 261.419 167.267 261.327C166.996 261.236 166.745 261.092 166.53 260.904C166.315 260.716 166.138 260.487 166.011 260.23C165.884 259.974 165.808 259.695 165.789 259.409C165.769 259.123 165.806 258.836 165.897 258.565L174.128 233.985C174.847 231.848 176.215 229.99 178.04 228.671C179.866 227.352 182.057 226.638 184.308 226.63L227.835 226.5Z" fill="#FFCE80"/>
<path d="M180.958 238.271C181.362 236.928 182.186 235.751 183.308 234.912C184.43 234.073 185.79 233.617 187.19 233.61L231.76 233.387C232.784 233.382 233.794 233.617 234.711 234.074C235.627 234.532 236.424 235.198 237.036 236.02C237.649 236.842 238.06 237.796 238.238 238.807C238.415 239.817 238.353 240.855 238.057 241.837L220.035 301.629C219.632 302.973 218.809 304.153 217.687 304.993C216.565 305.833 215.203 306.29 213.803 306.297L169.233 306.521C168.209 306.525 167.198 306.288 166.282 305.83C165.366 305.372 164.569 304.705 163.957 303.883C163.344 303.06 162.933 302.105 162.756 301.095C162.578 300.084 162.64 299.046 162.936 298.063L180.958 238.271Z" fill="#FDC458"/>
<path d="M175.631 279.586C175.917 278.55 176.534 277.638 177.387 276.987C178.24 276.337 179.282 275.984 180.354 275.984H216.053C216.806 275.985 217.548 276.16 218.223 276.495C218.897 276.83 219.486 277.316 219.943 277.916C220.399 278.516 220.712 279.213 220.857 279.954C221.001 280.694 220.973 281.458 220.776 282.186C219.719 286.062 218.396 290.91 217.512 294.166C217.227 295.202 216.611 296.115 215.757 296.766C214.904 297.417 213.861 297.769 212.789 297.768H177.069C176.315 297.771 175.571 297.599 174.895 297.265C174.219 296.932 173.629 296.446 173.171 295.846C172.714 295.246 172.401 294.548 172.258 293.807C172.115 293.065 172.145 292.301 172.346 291.573C173.402 287.697 174.725 282.849 175.609 279.593L175.631 279.586Z" fill="#F19E44"/>
<path d="M186.414 240.101C186.581 239.556 186.919 239.078 187.376 238.738C187.834 238.399 188.389 238.215 188.959 238.214H227.907C228.326 238.215 228.739 238.315 229.112 238.505C229.485 238.695 229.809 238.971 230.056 239.31C230.304 239.648 230.469 240.04 230.537 240.454C230.606 240.868 230.577 241.293 230.452 241.693C229.819 243.703 229.05 246.153 228.532 247.809C228.361 248.351 228.022 248.824 227.565 249.16C227.107 249.495 226.555 249.676 225.988 249.675L187.061 249.733C186.642 249.734 186.23 249.636 185.856 249.447C185.483 249.259 185.158 248.985 184.91 248.647C184.662 248.31 184.496 247.919 184.426 247.506C184.356 247.092 184.385 246.668 184.509 246.268C185.134 244.243 185.896 241.765 186.414 240.101Z" fill="#F19E44"/>
<path d="M191.935 243.22L204.601 204.442C204.77 203.972 205.084 203.567 205.498 203.287C205.911 203.008 206.403 202.867 206.902 202.886L233.076 203.225C233.435 203.225 233.79 203.305 234.114 203.459C234.439 203.614 234.725 203.839 234.952 204.118C235.165 204.383 235.308 204.697 235.368 205.032C235.429 205.367 235.404 205.711 235.297 206.034L222.803 244.337C222.584 244.906 222.159 245.37 221.612 245.638C221.065 245.905 220.438 245.955 219.856 245.778C219.569 245.712 219.298 245.588 219.061 245.414C218.824 245.239 218.624 245.018 218.476 244.764C218.327 244.509 218.232 244.227 218.196 243.935C218.16 243.642 218.184 243.345 218.267 243.062L229.855 207.525L208.613 207.251L196.478 244.481C196.259 245.05 195.834 245.515 195.287 245.782C194.74 246.049 194.113 246.099 193.531 245.922C193.243 245.856 192.972 245.732 192.734 245.557C192.496 245.382 192.296 245.161 192.147 244.905C191.998 244.65 191.903 244.367 191.868 244.073C191.833 243.78 191.858 243.482 191.942 243.199L191.935 243.22Z" fill="#C7E3F4"/>
<path d="M221.919 192.844C221.919 192.844 210.144 193.362 208.835 198.794C208.437 200.151 208.168 201.543 208.03 202.951L215.938 203.052C215.938 203.052 212.279 213.072 214.5 213.548C216.721 214.023 222.084 205.818 222.084 205.818C222.084 205.818 227.389 205.242 228.906 202.749C230.624 199.911 230.653 194.357 230.653 194.357L221.861 192.844H221.919Z" fill="#FDA092"/>
<path d="M231.803 136.531L219.582 193.643L230.538 195.754L247.654 144.081L231.803 136.531Z" fill="#FDA092"/>
<path d="M229.869 145.572C234.025 148.533 239.474 149.549 246.066 148.857L247.654 144.052L231.803 136.531L229.869 145.572Z" fill="#EF7D78"/>
<path d="M251.472 117.989C251.047 108.782 246.288 97.9762 246.288 97.9762C235.62 103.149 232.235 113.616 227.598 136.495C233.919 141.702 241.197 145.618 249.02 148.021C249.02 148.021 252.277 135.681 251.479 118.01L251.472 117.989Z" fill="#D4C548"/>
</g>
<path d="M28.9961 135.176V135.234H32.2773V135.176C32.2773 133.617 33.4844 132.469 35.125 132.469C36.6953 132.469 37.8086 133.477 37.8086 134.742C37.8086 135.914 37.2812 136.77 35.5703 138.48L29.1953 144.621V147H41.4883V144.188H33.8594V144.117L37.9844 140.145C39.8477 138.293 41.2539 136.711 41.2539 134.602C41.2539 131.777 38.8047 129.715 35.2422 129.715C31.5508 129.715 28.9961 131.977 28.9961 135.176ZM50.2305 147.375C54.4844 147.375 57.0625 143.965 57.0625 138.504C57.0625 133.043 54.4609 129.703 50.2305 129.703C46 129.703 43.3867 133.055 43.3867 138.516C43.3867 143.988 45.9766 147.375 50.2305 147.375ZM50.2305 144.539C48.2148 144.539 46.9844 142.359 46.9844 138.516C46.9844 134.707 48.2383 132.539 50.2305 132.539C52.2344 132.539 53.4648 134.695 53.4648 138.516C53.4648 142.371 52.2461 144.539 50.2305 144.539ZM66.2852 134.145C66.2852 131.461 64.7969 129.762 62.4297 129.762C60.0742 129.762 58.5742 131.461 58.5742 134.145C58.5742 136.84 60.0742 138.527 62.4297 138.527C64.7969 138.527 66.2852 136.84 66.2852 134.145ZM62.4297 136.453C61.668 136.453 61.1992 135.586 61.1992 134.133C61.1992 132.68 61.668 131.801 62.4297 131.801C63.1914 131.801 63.6602 132.68 63.6602 134.133C63.6602 135.586 63.1914 136.453 62.4297 136.453ZM63.0859 147L69.0391 138.832L75.4141 130.09H72.5898L66.8125 138.012L60.25 147H63.0859ZM77.0898 142.852C77.0898 140.168 75.6016 138.469 73.2344 138.469C70.8789 138.469 69.3789 140.168 69.3789 142.852C69.3789 145.547 70.8789 147.246 73.2344 147.246C75.6016 147.246 77.0898 145.547 77.0898 142.852ZM73.2344 145.16C72.4727 145.16 72.0039 144.293 72.0039 142.84C72.0039 141.387 72.4727 140.508 73.2344 140.508C73.9961 140.508 74.4648 141.387 74.4648 142.84C74.4648 144.293 73.9961 145.16 73.2344 145.16ZM89.2539 147.27C93.0508 147.27 95.4766 144.844 95.4766 140.707C95.4766 136.629 93.0156 134.168 89.2539 134.168C85.4922 134.168 83.0312 136.641 83.0312 140.707C83.0312 144.832 85.457 147.27 89.2539 147.27ZM89.2539 144.656C87.5664 144.656 86.5 143.238 86.5 140.719C86.5 138.223 87.5898 136.781 89.2539 136.781C90.918 136.781 91.9961 138.223 91.9961 140.719C91.9961 143.238 90.9297 144.656 89.2539 144.656ZM98.1602 147H101.582V137.016H103.996V134.496H101.5V133.664C101.5 132.773 101.992 132.281 103.117 132.281C103.457 132.281 103.797 132.305 104.043 132.352V130.09C103.645 130.008 102.93 129.938 102.297 129.938C99.3203 129.938 98.1602 131.086 98.1602 133.547V134.496H96.4492V137.016H98.1602V147ZM106.715 147H110.137V137.016H112.551V134.496H110.055V133.664C110.055 132.773 110.547 132.281 111.672 132.281C112.012 132.281 112.352 132.305 112.598 132.352V130.09C112.199 130.008 111.484 129.938 110.852 129.938C107.875 129.938 106.715 131.086 106.715 133.547V134.496H105.004V137.016H106.715V147ZM32.9453 159.09H29.4062V170.023C29.4062 173.75 32.1602 176.293 36.4961 176.293C40.8203 176.293 43.5742 173.75 43.5742 170.023V159.09H40.0352V169.672C40.0352 171.84 38.7578 173.258 36.4961 173.258C34.2227 173.258 32.9453 171.84 32.9453 169.672V159.09ZM45.8945 167.129C45.8945 168.98 47.1133 170.223 49.4922 170.762L51.8125 171.277C52.9375 171.547 53.3594 171.898 53.3594 172.531C53.3594 173.352 52.5742 173.867 51.2734 173.867C49.9141 173.867 49.082 173.258 48.918 172.203H45.5781C45.7656 174.652 47.8281 176.27 51.1797 176.27C54.4961 176.27 56.7695 174.641 56.7695 172.168C56.7695 170.293 55.75 169.297 53.2305 168.734L50.8281 168.219C49.7266 167.961 49.1875 167.539 49.1875 166.918C49.1875 166.109 49.9609 165.57 51.1445 165.57C52.4102 165.57 53.2188 166.191 53.2891 167.199H56.4414C56.3945 164.762 54.3438 163.168 51.1914 163.168C47.9688 163.168 45.8945 164.738 45.8945 167.129ZM64.1172 165.699C65.6406 165.699 66.6836 166.801 66.7539 168.406H61.4219C61.5391 166.836 62.6172 165.699 64.1172 165.699ZM66.8008 172.156C66.4844 173.117 65.5234 173.738 64.2695 173.738C62.5234 173.738 61.3867 172.508 61.3867 170.715V170.504H70.0469V169.461C70.0469 165.641 67.7383 163.168 64.082 163.168C60.3672 163.168 58.0234 165.77 58.0234 169.777C58.0234 173.797 60.3438 176.27 64.2109 176.27C67.3164 176.27 69.5664 174.617 69.9414 172.156H66.8008ZM76.8672 159.09V176H80.4062V170.668H83.5703C87.1328 170.668 89.6055 168.348 89.6055 164.879C89.6055 161.398 87.2148 159.09 83.7461 159.09H76.8672ZM80.4062 161.891H82.8086C84.8359 161.891 86.0078 162.969 86.0078 164.891C86.0078 166.824 84.8242 167.902 82.7969 167.902H80.4062V161.891ZM91.4102 176H94.832V168.98C94.832 167.211 95.8164 166.18 97.5039 166.18C97.9961 166.18 98.4648 166.262 98.7461 166.379V163.367C98.5117 163.297 98.1719 163.238 97.7734 163.238C96.2969 163.238 95.2305 164.105 94.7852 165.699H94.7148V163.438H91.4102V176ZM105.496 176.27C109.293 176.27 111.719 173.844 111.719 169.707C111.719 165.629 109.258 163.168 105.496 163.168C101.734 163.168 99.2734 165.641 99.2734 169.707C99.2734 173.832 101.699 176.27 105.496 176.27ZM105.496 173.656C103.809 173.656 102.742 172.238 102.742 169.719C102.742 167.223 103.832 165.781 105.496 165.781C107.16 165.781 108.238 167.223 108.238 169.719C108.238 172.238 107.172 173.656 105.496 173.656ZM113.488 176H116.91V168.418C116.91 167.012 117.789 166.027 119.09 166.027C120.355 166.027 121.117 166.824 121.117 168.172V176H124.41V168.371C124.41 166.977 125.266 166.027 126.566 166.027C127.891 166.027 128.617 166.824 128.617 168.277V176H132.039V167.422C132.039 164.891 130.387 163.203 127.926 163.203C126.086 163.203 124.586 164.199 124.023 165.781H123.953C123.531 164.141 122.266 163.203 120.449 163.203C118.738 163.203 117.391 164.199 116.863 165.711H116.793V163.438H113.488V176ZM139.973 176.27C143.77 176.27 146.195 173.844 146.195 169.707C146.195 165.629 143.734 163.168 139.973 163.168C136.211 163.168 133.75 165.641 133.75 169.707C133.75 173.832 136.176 176.27 139.973 176.27ZM139.973 173.656C138.285 173.656 137.219 172.238 137.219 169.719C137.219 167.223 138.309 165.781 139.973 165.781C141.637 165.781 142.715 167.223 142.715 169.719C142.715 172.238 141.648 173.656 139.973 173.656ZM148.879 160.543V163.438H147.109V166.016H148.879V172.613C148.879 175.062 150.027 176.047 152.98 176.047C153.672 176.047 154.258 175.988 154.609 175.906V173.387C154.398 173.422 154.082 173.445 153.777 173.445C152.77 173.445 152.301 172.988 152.301 172.027V166.016H154.621V163.438H152.301V160.543H148.879ZM156.555 176H159.977V163.438H156.555V176ZM158.266 162.055C159.297 162.055 160.094 161.27 160.094 160.285C160.094 159.289 159.297 158.516 158.266 158.516C157.234 158.516 156.438 159.289 156.438 160.285C156.438 161.27 157.234 162.055 158.266 162.055ZM168.027 176.27C171.824 176.27 174.25 173.844 174.25 169.707C174.25 165.629 171.789 163.168 168.027 163.168C164.266 163.168 161.805 165.641 161.805 169.707C161.805 173.832 164.23 176.27 168.027 176.27ZM168.027 173.656C166.34 173.656 165.273 172.238 165.273 169.719C165.273 167.223 166.363 165.781 168.027 165.781C169.691 165.781 170.77 167.223 170.77 169.719C170.77 172.238 169.703 173.656 168.027 173.656ZM176.02 176H179.441V168.793C179.441 167.164 180.414 166.039 181.949 166.039C183.484 166.039 184.258 166.977 184.258 168.617V176H187.68V167.902C187.68 164.961 186.109 163.203 183.32 163.203C181.387 163.203 180.062 164.117 179.395 165.676H179.324V163.438H176.02V176ZM194.699 173.727C193.539 173.727 192.766 173.141 192.766 172.203C192.766 171.312 193.492 170.738 194.77 170.645L197.418 170.48V171.395C197.418 172.754 196.188 173.727 194.699 173.727ZM193.574 176.199C195.145 176.199 196.703 175.414 197.406 174.078H197.477V176H200.781V167.363C200.781 164.832 198.684 163.168 195.461 163.168C192.133 163.168 190.059 164.844 189.93 167.281H193.059C193.223 166.355 194.031 165.723 195.309 165.723C196.598 165.723 197.418 166.402 197.418 167.574V168.406L194.254 168.594C191.125 168.781 189.367 170.105 189.367 172.391C189.367 174.652 191.184 176.199 193.574 176.199ZM203.078 176H206.5V159.09H203.078V176ZM36.8828 205.293C41.0312 205.293 43.9258 202.902 44.3242 199.129H40.8789C40.5039 201.133 38.9922 202.363 36.8945 202.363C34.1875 202.363 32.4883 200.137 32.4883 196.527C32.4883 192.965 34.2109 190.727 36.8828 190.727C38.9453 190.727 40.5391 192.086 40.8672 194.16H44.3125C44.043 190.375 40.9492 187.797 36.8828 187.797C31.9844 187.797 28.8789 191.09 28.8789 196.539C28.8789 202 31.9609 205.293 36.8828 205.293ZM51.9883 205.27C55.7852 205.27 58.2109 202.844 58.2109 198.707C58.2109 194.629 55.75 192.168 51.9883 192.168C48.2266 192.168 45.7656 194.641 45.7656 198.707C45.7656 202.832 48.1914 205.27 51.9883 205.27ZM51.9883 202.656C50.3008 202.656 49.2344 201.238 49.2344 198.719C49.2344 196.223 50.3242 194.781 51.9883 194.781C53.6523 194.781 54.7305 196.223 54.7305 198.719C54.7305 201.238 53.6641 202.656 51.9883 202.656ZM71.582 192.438H68.1602V199.633C68.1602 201.297 67.2109 202.387 65.6875 202.387C64.1758 202.387 63.3438 201.496 63.3438 199.82V192.438H59.9219V200.535C59.9219 203.465 61.7266 205.234 64.4453 205.234C66.3438 205.234 67.5859 204.32 68.207 202.738H68.2773V205H71.582V192.438ZM81.1445 192.238C79.3281 192.238 77.9336 193.152 77.2539 194.629H77.1836V192.438H73.8086V209.102H77.2305V202.891H77.3008C77.9688 204.309 79.375 205.199 81.2031 205.199C84.3438 205.199 86.2891 202.762 86.2891 198.719C86.2891 194.664 84.332 192.238 81.1445 192.238ZM79.9961 202.445C78.3203 202.445 77.2188 200.992 77.2188 198.719C77.2188 196.469 78.3203 194.98 79.9961 194.98C81.707 194.98 82.7852 196.445 82.7852 198.719C82.7852 201.004 81.707 202.445 79.9961 202.445ZM93.8242 205.27C97.6211 205.27 100.047 202.844 100.047 198.707C100.047 194.629 97.5859 192.168 93.8242 192.168C90.0625 192.168 87.6016 194.641 87.6016 198.707C87.6016 202.832 90.0273 205.27 93.8242 205.27ZM93.8242 202.656C92.1367 202.656 91.0703 201.238 91.0703 198.719C91.0703 196.223 92.1602 194.781 93.8242 194.781C95.4883 194.781 96.5664 196.223 96.5664 198.719C96.5664 201.238 95.5 202.656 93.8242 202.656ZM101.816 205H105.238V197.793C105.238 196.164 106.211 195.039 107.746 195.039C109.281 195.039 110.055 195.977 110.055 197.617V205H113.477V196.902C113.477 193.961 111.906 192.203 109.117 192.203C107.184 192.203 105.859 193.117 105.191 194.676H105.121V192.438H101.816V205ZM128.172 205.293C132.32 205.293 135.215 202.902 135.613 199.129H132.168C131.793 201.133 130.281 202.363 128.184 202.363C125.477 202.363 123.777 200.137 123.777 196.527C123.777 192.965 125.5 190.727 128.172 190.727C130.234 190.727 131.828 192.086 132.156 194.16H135.602C135.332 190.375 132.238 187.797 128.172 187.797C123.273 187.797 120.168 191.09 120.168 196.539C120.168 202 123.25 205.293 128.172 205.293ZM143.277 205.27C147.074 205.27 149.5 202.844 149.5 198.707C149.5 194.629 147.039 192.168 143.277 192.168C139.516 192.168 137.055 194.641 137.055 198.707C137.055 202.832 139.48 205.27 143.277 205.27ZM143.277 202.656C141.59 202.656 140.523 201.238 140.523 198.719C140.523 196.223 141.613 194.781 143.277 194.781C144.941 194.781 146.02 196.223 146.02 198.719C146.02 201.238 144.953 202.656 143.277 202.656ZM155.934 205.199C157.785 205.199 159.238 204.227 159.848 202.844H159.906V205H163.281V188.09H159.859V194.594H159.789C159.18 193.199 157.773 192.238 155.957 192.238C152.805 192.238 150.812 194.711 150.812 198.695C150.812 202.715 152.793 205.199 155.934 205.199ZM157.094 194.98C158.793 194.98 159.883 196.434 159.883 198.719C159.883 201.016 158.793 202.445 157.094 202.445C155.371 202.445 154.316 201.027 154.316 198.719C154.316 196.422 155.371 194.98 157.094 194.98ZM171.203 194.699C172.727 194.699 173.77 195.801 173.84 197.406H168.508C168.625 195.836 169.703 194.699 171.203 194.699ZM173.887 201.156C173.57 202.117 172.609 202.738 171.355 202.738C169.609 202.738 168.473 201.508 168.473 199.715V199.504H177.133V198.461C177.133 194.641 174.824 192.168 171.168 192.168C167.453 192.168 165.109 194.77 165.109 198.777C165.109 202.797 167.43 205.27 171.297 205.27C174.402 205.27 176.652 203.617 177.027 201.156H173.887ZM181.129 205.141C182.172 205.141 183.016 204.297 183.016 203.254C183.016 202.199 182.172 201.367 181.129 201.367C180.074 201.367 179.242 202.199 179.242 203.254C179.242 204.297 180.074 205.141 181.129 205.141ZM181.129 196.762C182.172 196.762 183.016 195.918 183.016 194.875C183.016 193.82 182.172 192.988 181.129 192.988C180.074 192.988 179.242 193.82 179.242 194.875C179.242 195.918 180.074 196.762 181.129 196.762Z" fill="white"/>
<path d="M37.0352 216.797C32.0195 216.797 28.8789 220.16 28.8789 225.551C28.8789 230.93 32.0195 234.293 37.0352 234.293C42.0391 234.293 45.1914 230.93 45.1914 225.551C45.1914 220.16 42.0391 216.797 37.0352 216.797ZM37.0352 219.75C39.8008 219.75 41.5703 222 41.5703 225.551C41.5703 229.09 39.8008 231.328 37.0352 231.328C34.2578 231.328 32.4883 229.09 32.4883 225.551C32.4883 222 34.2695 219.75 37.0352 219.75ZM47.1836 234H50.6055V226.98C50.6055 225.211 51.5898 224.18 53.2773 224.18C53.7695 224.18 54.2383 224.262 54.5195 224.379V221.367C54.2852 221.297 53.9453 221.238 53.5469 221.238C52.0703 221.238 51.0039 222.105 50.5586 223.699H50.4883V221.438H47.1836V234ZM56.0078 234H59.4297V217.09H56.0078V234ZM66.5898 231.727C65.4297 231.727 64.6562 231.141 64.6562 230.203C64.6562 229.312 65.3828 228.738 66.6602 228.645L69.3086 228.48V229.395C69.3086 230.754 68.0781 231.727 66.5898 231.727ZM65.4648 234.199C67.0352 234.199 68.5938 233.414 69.2969 232.078H69.3672V234H72.6719V225.363C72.6719 222.832 70.5742 221.168 67.3516 221.168C64.0234 221.168 61.9492 222.844 61.8203 225.281H64.9492C65.1133 224.355 65.9219 223.723 67.1992 223.723C68.4883 223.723 69.3086 224.402 69.3086 225.574V226.406L66.1445 226.594C63.0156 226.781 61.2578 228.105 61.2578 230.391C61.2578 232.652 63.0742 234.199 65.4648 234.199ZM74.8867 234H78.3086V226.793C78.3086 225.164 79.2812 224.039 80.8164 224.039C82.3516 224.039 83.125 224.977 83.125 226.617V234H86.5469V225.902C86.5469 222.961 84.9766 221.203 82.1875 221.203C80.2539 221.203 78.9297 222.117 78.2617 223.676H78.1914V221.438H74.8867V234ZM93.3789 234.199C95.2305 234.199 96.6836 233.227 97.293 231.844H97.3516V234H100.727V217.09H97.3047V223.594H97.2344C96.625 222.199 95.2188 221.238 93.4023 221.238C90.25 221.238 88.2578 223.711 88.2578 227.695C88.2578 231.715 90.2383 234.199 93.3789 234.199ZM94.5391 223.98C96.2383 223.98 97.3281 225.434 97.3281 227.719C97.3281 230.016 96.2383 231.445 94.5391 231.445C92.8164 231.445 91.7617 230.027 91.7617 227.719C91.7617 225.422 92.8164 223.98 94.5391 223.98ZM108.777 234.27C112.574 234.27 115 231.844 115 227.707C115 223.629 112.539 221.168 108.777 221.168C105.016 221.168 102.555 223.641 102.555 227.707C102.555 231.832 104.98 234.27 108.777 234.27ZM108.777 231.656C107.09 231.656 106.023 230.238 106.023 227.719C106.023 225.223 107.113 223.781 108.777 223.781C110.441 223.781 111.52 225.223 111.52 227.719C111.52 230.238 110.453 231.656 108.777 231.656Z" fill="#FFD723"/>
<path d="M31.414 85.7779C30.5 85.9999 30 87.1919 30 87.1919C30 87.1919 33.398 87.6259 34.949 89.3129C36.5 90.9999 37.071 94.2629 37.071 94.2629C37.071 94.2629 38.47 94.6979 38.485 92.8489C38.5 90.9999 37.778 89.3129 37.778 89.3129L41.091 85.9999L44.701 93.7039C44.701 93.7039 46.08 94.2299 46.04 92.3649C46 90.4999 44.85 82.2419 44.85 82.2419L47.678 79.4129C47.869 79.2284 48.0214 79.0078 48.1262 78.7638C48.231 78.5197 48.2862 78.2573 48.2885 77.9917C48.2908 77.7262 48.2402 77.4628 48.1396 77.217C48.0391 76.9712 47.8906 76.7479 47.7028 76.5602C47.515 76.3724 47.2917 76.2239 47.0459 76.1233C46.8001 76.0227 46.5368 75.9721 46.2712 75.9744C46.0056 75.9767 45.7432 76.0319 45.4992 76.1367C45.2552 76.2416 45.0345 76.3939 44.85 76.5849L41.947 79.4879C41.947 79.4879 34.148 78.0939 31.824 78.2969C29.5 78.4999 30.559 79.5629 30.559 79.5629L38.203 83.2329L34.95 86.4859C34.95 86.4859 32.328 85.5559 31.414 85.7779Z" fill="white"/>
<path d="M56.9404 90.5H58.8389V84.7871C58.8389 83.6006 59.6387 82.7217 60.7637 82.7217C61.8359 82.7217 62.5127 83.3984 62.5127 84.4619V90.5H64.376V84.7256C64.376 83.5566 65.1582 82.7217 66.2832 82.7217C67.4082 82.7217 68.0498 83.4072 68.0498 84.6025V90.5H69.957V84.1455C69.957 82.3086 68.7617 81.0957 66.9336 81.0957C65.6152 81.0957 64.5254 81.7812 64.0508 82.9062H64.0068C63.6377 81.7549 62.7061 81.0957 61.4229 81.0957C60.1748 81.0957 59.208 81.7812 58.7949 82.8096H58.751V81.2539H56.9404V90.5ZM73.068 93.9453C74.9928 93.9453 75.8981 93.2246 76.6891 90.9834L80.1608 81.2539H78.1569L75.8102 88.7773H75.7838L73.4371 81.2539H71.3805L74.7204 90.5088C74.7204 90.5176 74.5534 91.0625 74.5534 91.0801C74.2633 92.0293 73.7975 92.3984 72.9098 92.3984C72.7516 92.3984 72.4352 92.3984 72.2946 92.3633V93.9014C72.4352 93.9277 72.9186 93.9453 73.068 93.9453ZM85.8818 77.8174V90.5H90.3554C94.1347 90.5 96.3583 88.1445 96.3583 84.1367C96.3583 80.1377 94.1259 77.8174 90.3554 77.8174H85.8818ZM87.8505 79.5137H90.1708C92.8515 79.5137 94.3456 81.166 94.3456 84.1543C94.3456 87.1514 92.8603 88.7949 90.1708 88.7949H87.8505V79.5137ZM98.3707 90.5H100.269V84.9629C100.269 83.6533 101.025 82.8359 102.247 82.8359C102.616 82.8359 102.95 82.8799 103.099 82.9414V81.1748C102.959 81.1484 102.721 81.1045 102.449 81.1045C101.359 81.1045 100.533 81.7461 100.225 82.8271H100.181V81.2539H98.3707V90.5ZM108.1 82.6162C109.427 82.6162 110.323 83.6094 110.367 85.0244H105.744C105.841 83.627 106.773 82.6162 108.1 82.6162ZM110.359 87.7842C110.104 88.5928 109.304 89.1377 108.223 89.1377C106.702 89.1377 105.736 88.0742 105.736 86.4658V86.3516H112.266V85.7012C112.266 82.8975 110.666 81.0869 108.1 81.0869C105.489 81.0869 103.82 83.0205 103.82 85.9209C103.82 88.8389 105.463 90.6758 108.179 90.6758C110.297 90.6758 111.897 89.4717 112.16 87.7842H110.359ZM117.337 89.1553C116.317 89.1553 115.649 88.6279 115.649 87.8193C115.649 87.0283 116.291 86.5273 117.425 86.4482L119.701 86.3076V87.0371C119.701 88.2412 118.664 89.1553 117.337 89.1553ZM116.809 90.6582C118.022 90.6582 119.191 90.0078 119.727 88.9795H119.771V90.5H121.591V84.1279C121.591 82.2734 120.158 81.0869 117.917 81.0869C115.632 81.0869 114.208 82.3174 114.102 83.9873H115.895C116.062 83.1611 116.748 82.6338 117.847 82.6338C119.007 82.6338 119.701 83.249 119.701 84.2773V84.9893L117.17 85.1387C114.972 85.2617 113.733 86.2549 113.733 87.8721C113.733 89.5332 114.999 90.6582 116.809 90.6582ZM123.796 90.5H125.695V84.7871C125.695 83.6006 126.495 82.7217 127.62 82.7217C128.692 82.7217 129.369 83.3984 129.369 84.4619V90.5H131.232V84.7256C131.232 83.5566 132.014 82.7217 133.139 82.7217C134.264 82.7217 134.906 83.4072 134.906 84.6025V90.5H136.813V84.1455C136.813 82.3086 135.618 81.0957 133.79 81.0957C132.471 81.0957 131.381 81.7812 130.907 82.9062H130.863C130.494 81.7549 129.562 81.0957 128.279 81.0957C127.031 81.0957 126.064 81.7812 125.651 82.8096H125.607V81.2539H123.796V90.5ZM143.255 77.8174V90.5H145.223V86.167H147.948C150.435 86.167 152.184 84.4619 152.184 81.9834C152.184 79.5137 150.47 77.8174 148.01 77.8174H143.255ZM145.223 79.4785H147.491C149.196 79.4785 150.172 80.3926 150.172 81.9922C150.172 83.5918 149.196 84.5146 147.482 84.5146H145.223V79.4785ZM154.109 90.5H156.007V77.8174H154.109V90.5ZM161.553 89.1553C160.533 89.1553 159.865 88.6279 159.865 87.8193C159.865 87.0283 160.507 86.5273 161.641 86.4482L163.917 86.3076V87.0371C163.917 88.2412 162.88 89.1553 161.553 89.1553ZM161.025 90.6582C162.238 90.6582 163.407 90.0078 163.943 88.9795H163.987V90.5H165.807V84.1279C165.807 82.2734 164.374 81.0869 162.133 81.0869C159.848 81.0869 158.424 82.3174 158.318 83.9873H160.111C160.278 83.1611 160.964 82.6338 162.063 82.6338C163.223 82.6338 163.917 83.249 163.917 84.2773V84.9893L161.386 85.1387C159.189 85.2617 157.949 86.2549 157.949 87.8721C157.949 89.5332 159.215 90.6582 161.025 90.6582ZM175.949 84.4355C175.782 82.6162 174.332 81.0869 171.95 81.0869C169.322 81.0869 167.599 82.9414 167.599 85.877C167.599 88.8652 169.322 90.6758 171.967 90.6758C174.191 90.6758 175.764 89.3398 175.966 87.3711H174.138C173.919 88.4434 173.154 89.085 171.985 89.085C170.508 89.085 169.533 87.9072 169.533 85.877C169.533 83.8906 170.5 82.6689 171.967 82.6689C173.207 82.6689 173.945 83.4512 174.138 84.4355H175.949ZM181.538 82.6162C182.866 82.6162 183.762 83.6094 183.806 85.0244H179.183C179.28 83.627 180.211 82.6162 181.538 82.6162ZM183.797 87.7842C183.542 88.5928 182.743 89.1377 181.661 89.1377C180.141 89.1377 179.174 88.0742 179.174 86.4658V86.3516H185.704V85.7012C185.704 82.8975 184.105 81.0869 181.538 81.0869C178.928 81.0869 177.258 83.0205 177.258 85.9209C177.258 88.8389 178.902 90.6758 181.618 90.6758C183.736 90.6758 185.335 89.4717 185.599 87.7842H183.797Z" fill="white"/>
<defs>
<linearGradient id="paint0_linear_0_1" x1="200" y1="0" x2="200" y2="340" gradientUnits="userSpaceOnUse">
<stop stop-color="#4796FF"/>
<stop offset="1" stop-color="#2366BF"/>
</linearGradient>
<clipPath id="clip0_0_1">
<rect width="177" height="291" fill="white" transform="translate(154 35)"/>
</clipPath>
</defs>
</svg>
