<svg width="240" height="200" viewBox="0 0 240 200" fill="none" xmlns="http://www.w3.org/2000/svg">
<rect width="240" height="200" rx="100" fill="#2F80ED" fill-opacity="0.3"/>
<g clip-path="url(#clip0_0_1)">
<path d="M147.917 199.995C168.68 199.995 185.512 198.107 185.512 195.777C185.512 193.447 168.68 191.559 147.917 191.559C127.153 191.559 110.321 193.447 110.321 195.777C110.321 198.107 127.153 199.995 147.917 199.995Z" fill="#B4CFD6"/>
<path d="M166.943 75.2361C166.615 73.3399 165.627 71.6206 164.154 70.3823C162.681 69.144 160.818 68.4664 158.894 68.4692H141.246C139.248 68.4729 137.32 69.2107 135.83 70.5424C134.339 71.8741 133.39 73.7069 133.163 75.6924C132.411 82.2213 131.294 91.8667 130.478 98.9199C130.346 100.061 130.457 101.217 130.803 102.312C131.15 103.407 131.724 104.416 132.488 105.274C133.253 106.131 134.19 106.817 135.238 107.286C136.287 107.756 137.423 107.998 138.571 107.997H162.952C164.14 107.998 165.313 107.739 166.39 107.238C167.467 106.737 168.421 106.007 169.186 105.099C169.951 104.191 170.508 103.126 170.818 101.98C171.128 100.834 171.184 99.6337 170.982 98.4636C169.725 91.2842 168.05 81.6243 166.943 75.2361Z" fill="#FCC458"/>
<path d="M169.724 76.4303C169.377 74.5595 168.386 72.8691 166.923 71.6526C165.46 70.4361 163.617 69.7701 161.714 69.7703H143.907C141.92 69.7706 140.001 70.4972 138.512 71.8132C137.024 73.1292 136.067 74.9439 135.823 76.9157C135.095 82.8039 134.056 91.1872 133.27 97.5608C133.127 98.7062 133.23 99.8688 133.571 100.971C133.912 102.074 134.484 103.092 135.248 103.956C136.013 104.821 136.952 105.514 138.005 105.988C139.057 106.462 140.199 106.707 141.353 106.706H165.544C166.74 106.706 167.921 106.443 169.004 105.936C170.086 105.428 171.044 104.688 171.808 103.769C172.573 102.85 173.126 101.774 173.428 100.617C173.729 99.46 173.773 98.2509 173.555 97.0754L169.724 76.4303Z" fill="#F8A848"/>
<path d="M132.789 91.2844L130.765 91.1582C130.765 91.1582 130.362 97.6192 130.163 100.745C130.138 101.183 130.286 101.612 130.576 101.94C130.866 102.269 131.274 102.469 131.712 102.498H132.085L132.789 91.2844Z" fill="#F8A848"/>
<path d="M115.904 128.109L102.578 145.652C106.598 146.395 111.069 144.953 116.21 140.312L118.05 132.837C117.544 131.174 116.823 129.584 115.904 128.109Z" fill="#CB4143"/>
<path d="M102.578 145.652L115.895 128.133C115.262 127.111 114.476 126.193 113.564 125.41L99.9709 144.87C100.807 145.23 101.682 145.492 102.578 145.652Z" fill="#F9E4E4"/>
<path d="M152.946 123.56C152.946 123.56 147.121 150.419 142.581 153.579C137.727 156.977 114.598 140.205 114.598 140.205C113.914 138.22 115.982 132.487 117.458 131.909C117.458 131.909 132.872 137.919 133.095 136.72C133.517 134.458 134.464 117.919 134.464 117.919L152.946 123.56Z" fill="#FDA092"/>
<path d="M134.27 121.041L134.464 117.919L152.946 123.56C152.946 123.56 152.524 125.502 151.82 128.375C144.227 127.497 137.479 123.327 134.27 121.041Z" fill="#EF7D78"/>
<path d="M153.616 192.122L175.599 193.151C173.929 189.418 170.205 186.554 163.462 184.962L156.257 187.69C155.187 189.044 154.301 190.535 153.621 192.122H153.616Z" fill="#CB4143"/>
<path d="M175.599 193.151L153.616 192.122C153.133 193.223 152.822 194.392 152.694 195.588L176.419 195.723C176.244 194.837 175.969 193.974 175.599 193.151Z" fill="#F9E4E4"/>
<path d="M155.767 122.711C157.481 144.447 157.614 166.279 156.165 188.034C158.495 188.316 162.574 188.063 165.535 186.068C169.482 163.526 172.088 140.77 173.341 117.919L155.767 122.711Z" fill="#FDA092"/>
<path d="M173.026 122.526L173.341 117.919L155.767 122.711L156.17 128.497C162.481 128.094 168.632 125.201 173.026 122.526Z" fill="#EF7D78"/>
<path d="M141.465 98.8909C136.819 103.59 134.668 110.08 133.755 119.279C139.198 122.915 145.591 125.181 153.32 125.706L154.626 121.264L155.073 125.58C161.433 124.939 168.977 123.055 174.837 119.686C173.857 112.503 171.699 105.531 168.448 99.0511L141.465 98.8957V98.8909Z" fill="#7396DD"/>
<path d="M138.591 102.532C139.411 101.215 140.375 99.9939 141.465 98.8909L168.448 99.0462L169.293 100.857C167.775 101.556 166.186 102.09 164.554 102.449C158.204 103.76 147.859 104.721 138.591 102.532Z" fill="#6277C5"/>
<path d="M159.296 124.992C157.84 125.259 156.437 125.453 155.073 125.589L154.626 121.274V121.099L156.044 116.541L166.239 114.929L159.296 124.992Z" fill="#6277C5"/>
<path d="M142.581 53.2416C142.581 53.2416 151.378 61.5715 153.907 61.2462C156.437 60.921 165.894 53.261 165.894 53.261C165.894 53.261 174.914 92.8911 173.103 96.556C171.419 99.954 166.792 101.1 165.894 101.289C164.996 101.478 145.047 103.032 141.29 100.852C137.989 98.9103 135.872 97.7211 135.906 93.9978C135.94 90.2746 142.581 53.2222 142.581 53.2222V53.2416Z" fill="#B0AB1E"/>
<path d="M137.625 81.9543C137.984 86.3232 139.911 91.624 143.62 94.5754C149.446 99.216 163.821 100.119 173.331 94.0269C173.375 95.2647 173.307 96.1433 173.103 96.5608C171.419 99.9587 166.792 101.104 165.894 101.294C164.996 101.483 145.047 103.036 141.29 100.857C137.989 98.9151 135.872 97.7258 135.906 94.0026C135.906 92.7745 136.654 87.9154 137.625 81.9592V81.9543Z" fill="#9FA317"/>
<path d="M149.262 54.8096C149.262 54.8096 149.98 59.7415 147.893 60.8871C147.893 60.8871 149.529 67.4743 154.238 67.3432C158.122 67.2364 160.01 60.8531 160.01 60.8531C160.01 60.8531 157.801 60.7657 158.233 55.1008L149.262 54.8096Z" fill="#FDA092"/>
<path d="M149.145 58.926C151.878 60.6298 157.151 61.7657 159.947 61.0473C159.986 60.9211 160.01 60.8531 160.01 60.8531C160.01 60.8531 157.801 60.7657 158.233 55.1008L149.262 54.8096C149.448 56.1789 149.408 57.5694 149.145 58.926Z" fill="#EF7D78"/>
<path d="M164.554 54.8095C176.992 46.2466 187.343 34.3003 196.63 20.6162L201.412 25.8685C191.995 42.705 180.809 58.4896 168.045 72.9547L164.554 54.8289V54.8095Z" fill="#FDA092"/>
<path d="M196.698 21.5724C196.698 21.5724 194.421 12.6795 195.533 11.9368C196.644 11.1941 198.62 16.9658 198.62 16.9658C198.62 16.9658 203.999 8.92713 205.417 9.7475C206.835 10.5679 203.533 16.2425 203.533 16.2425C203.533 16.2425 209.228 12.2426 210.296 13.0241C211.364 13.8056 205.815 18.9269 205.815 18.9269C205.815 18.9269 211.417 17.3638 211.685 18.2716C211.952 19.1793 206.689 22.0821 206.689 22.0821C206.689 22.0821 212.223 22.2569 212.005 23.1986C211.786 24.1403 201.057 26.0481 201.057 26.0481L197.198 22.0918" fill="#FDA092"/>
<path d="M144.329 56.9307C134.838 47.9212 125.211 34.9895 115.802 19.7278L110.52 24.4801C118.147 42.2078 128.085 58.1249 139.188 73.9934L144.329 56.9307Z" fill="#FDA092"/>
<path d="M115.647 20.6697C115.647 20.6697 118.793 12.0485 117.764 11.1893C116.735 10.3301 114.191 15.8882 114.191 15.8882C114.191 15.8882 109.632 7.35447 108.151 8.02921C106.671 8.70395 109.375 14.6892 109.375 14.6892C109.375 14.6892 104.107 10.1457 102.966 10.8058C101.825 11.466 106.85 17.1164 106.85 17.1164C106.85 17.1164 101.423 15.0048 101.073 15.8834C100.723 16.762 105.666 20.1745 105.666 20.1745C105.666 20.1745 100.141 19.7959 100.262 20.7522C100.384 21.7085 110.875 24.6744 110.875 24.6744L115.103 21.1211" fill="#FDA092"/>
<path d="M148.266 57.1347L145.941 56.29C142.164 70.5567 138.173 84.0223 133.207 97.4395C133.343 98.8375 133.731 99.9491 134.76 100.303C139.717 88.0222 144.523 72.6877 148.266 57.1347Z" fill="#FFD983"/>
<path d="M159.238 57.1347L161.568 56.29C165.345 70.5567 168.739 82.503 173.705 95.9152C173.424 97.2113 172.734 98.0414 172.128 98.2404C167.146 85.9446 162.986 72.6877 159.238 57.1347Z" fill="#FFD983"/>
<path d="M149.223 87.0757C148.616 76.5226 148.946 67.8238 149.257 57.9502C149.261 57.7819 149.198 57.6188 149.083 57.4962C148.967 57.3735 148.808 57.3012 148.64 57.2949C148.556 57.2917 148.473 57.3051 148.394 57.3345C148.316 57.3638 148.244 57.4085 148.183 57.4659C148.122 57.5232 148.073 57.5922 148.039 57.6687C148.005 57.7452 147.987 57.8277 147.985 57.9114C147.674 67.8189 147.344 76.5517 147.951 87.1437C147.96 87.3123 148.037 87.4702 148.163 87.5827C148.289 87.6951 148.454 87.7528 148.623 87.7432C148.792 87.7335 148.95 87.6573 149.062 87.5312C149.175 87.4051 149.232 87.2395 149.223 87.0709V87.0757Z" fill="#363E77"/>
<path d="M161.981 86.3039C161.699 77.1925 160.879 67.8141 159.738 58.2755C159.713 58.1126 159.625 57.9659 159.494 57.8662C159.363 57.7666 159.198 57.7218 159.034 57.7413C158.871 57.7608 158.721 57.8431 158.617 57.9708C158.513 58.0986 158.462 58.2618 158.476 58.426C159.612 67.9258 160.418 77.2702 160.714 86.3428C160.709 86.4306 160.723 86.5183 160.754 86.6005C160.785 86.6827 160.833 86.7575 160.895 86.8203C160.956 86.8831 161.03 86.9325 161.112 86.9653C161.193 86.9981 161.281 87.0136 161.369 87.0109C161.456 87.0082 161.543 86.9874 161.622 86.9496C161.702 86.9119 161.772 86.8581 161.83 86.7917C161.887 86.7252 161.93 86.6476 161.957 86.5637C161.983 86.4797 161.991 86.3913 161.981 86.3039Z" fill="#363E77"/>
<path d="M147.028 88.0561C147.023 87.4432 147.261 86.8531 147.689 86.4148C148.118 85.9764 148.702 85.7253 149.315 85.7164L160.19 85.5999C160.494 85.5954 160.796 85.6511 161.078 85.7637C161.361 85.8764 161.618 86.0437 161.835 86.2562C162.053 86.4687 162.226 86.7222 162.345 87.0019C162.465 87.2816 162.527 87.5822 162.53 87.8862C162.53 89.7842 162.578 92.4589 162.603 94.3569C162.608 94.9707 162.37 95.5614 161.94 96C161.511 96.4385 160.925 96.689 160.311 96.6967L149.436 96.818C149.132 96.8212 148.831 96.7645 148.549 96.651C148.267 96.5375 148.01 96.3696 147.793 96.1568C147.577 95.9439 147.404 95.6904 147.285 95.4107C147.166 95.131 147.104 94.8307 147.101 94.5268C147.077 92.6288 147.048 89.9541 147.028 88.0561Z" fill="#C84A77"/>
<path d="M148.116 88.0319C148.111 87.7282 148.167 87.4267 148.28 87.1449C148.394 86.8632 148.562 86.6069 148.776 86.3911C148.988 86.1735 149.241 85.9997 149.52 85.8797C149.799 85.7598 150.099 85.696 150.402 85.6921L161.277 85.5756C161.581 85.5718 161.883 85.6279 162.165 85.7408C162.447 85.8537 162.704 86.0211 162.921 86.2335C163.139 86.4458 163.312 86.699 163.431 86.9784C163.551 87.2579 163.614 87.5581 163.617 87.862C163.617 89.76 163.666 92.4347 163.69 94.3327C163.695 94.9464 163.457 95.5372 163.027 95.9757C162.598 96.4142 162.012 96.6647 161.398 96.6724L150.529 96.7938C150.224 96.7976 149.922 96.7413 149.64 96.6282C149.357 96.515 149.1 96.3471 148.883 96.1342C148.665 95.9213 148.492 95.6676 148.373 95.3876C148.254 95.1076 148.191 94.8068 148.189 94.5026C148.164 92.6046 148.135 89.9299 148.116 88.0319Z" fill="#DA669A"/>
<path d="M158.947 93.226C159.481 92.5381 159.767 91.6896 159.757 90.8186C159.747 89.9477 159.443 89.1057 158.893 88.43V87.5222H156.762C155.408 87.7067 154.364 89.129 154.383 90.8377C154.403 92.5464 155.476 93.9492 156.835 94.1046L158.961 94.0803V93.1726L158.947 93.226Z" fill="#C84A77"/>
<path d="M158.694 87.5126C158.039 87.5194 157.401 87.7203 156.86 88.0899C156.32 88.4594 155.901 88.9811 155.656 89.5888C155.412 90.1966 155.354 90.8631 155.489 91.5041C155.623 92.145 155.945 92.7316 156.413 93.1896C156.882 93.6476 157.475 93.9565 158.119 94.077C158.763 94.1976 159.428 94.1246 160.03 93.8671C160.633 93.6096 161.145 93.1793 161.503 92.6305C161.86 92.0818 162.047 91.4393 162.039 90.7844C162.029 89.9072 161.671 89.0699 161.044 88.4565C160.417 87.843 159.572 87.5036 158.694 87.5126Z" fill="#F599C8"/>
<path d="M158.699 88.2018C158.182 88.2085 157.679 88.3683 157.252 88.6609C156.826 88.9536 156.496 89.3659 156.304 89.846C156.112 90.326 156.066 90.8522 156.173 91.3581C156.28 91.8641 156.534 92.327 156.904 92.6885C157.273 93.0501 157.742 93.294 158.25 93.3894C158.758 93.4849 159.284 93.4277 159.759 93.225C160.235 93.0223 160.64 92.6832 160.923 92.2505C161.206 91.8178 161.355 91.311 161.35 90.7939C161.341 90.0991 161.057 89.4362 160.56 88.9503C160.063 88.4645 159.394 88.1953 158.699 88.2018Z" fill="#363E77"/>
<path d="M159.738 89.0806C159.581 89.0944 159.435 89.1666 159.328 89.2829C159.221 89.3993 159.162 89.5514 159.162 89.7092C159.162 89.867 159.221 90.019 159.328 90.1354C159.435 90.2518 159.581 90.324 159.738 90.3378C159.825 90.3455 159.913 90.3349 159.996 90.3068C160.079 90.2787 160.155 90.2337 160.22 90.1745C160.284 90.1154 160.336 90.0435 160.371 89.9634C160.406 89.8833 160.425 89.7967 160.425 89.7092C160.425 89.6216 160.406 89.5351 160.371 89.455C160.336 89.3748 160.284 89.3029 160.22 89.2438C160.155 89.1847 160.079 89.1397 159.996 89.1115C159.913 89.0834 159.825 89.0729 159.738 89.0806Z" fill="white"/>
<path d="M149.747 87.0853C149.746 87.0588 149.751 87.0324 149.761 87.0077C149.771 86.983 149.785 86.9604 149.804 86.9415C149.822 86.9225 149.844 86.9074 149.869 86.8971C149.893 86.8867 149.92 86.8814 149.946 86.8814L152.898 86.8475C152.924 86.8468 152.951 86.8515 152.976 86.8612C153 86.8709 153.023 86.8855 153.042 86.904C153.061 86.9226 153.076 86.9447 153.086 86.9692C153.096 86.9937 153.102 87.0199 153.102 87.0465C153.102 87.3232 153.102 87.8232 153.102 88.1047C153.102 88.158 153.081 88.2091 153.044 88.2472C153.007 88.2853 152.956 88.3073 152.903 88.3086L149.951 88.3377C149.898 88.3377 149.848 88.3168 149.81 88.2794C149.773 88.2421 149.752 88.1915 149.752 88.1387C149.757 87.8863 149.752 87.362 149.747 87.0853Z" fill="#C84A77"/>
<path d="M150.024 87.2942C150.025 87.2542 150.041 87.216 150.069 87.1873C150.097 87.1585 150.134 87.1413 150.174 87.1389L152.665 87.1146C152.685 87.1139 152.705 87.1173 152.724 87.1246C152.743 87.1319 152.76 87.1429 152.774 87.1569C152.789 87.1709 152.8 87.1877 152.808 87.2063C152.816 87.2249 152.82 87.2449 152.82 87.2651C152.82 87.4204 152.82 87.6582 152.82 87.8184C152.82 87.8583 152.804 87.8966 152.776 87.9248C152.748 87.9531 152.709 87.9689 152.67 87.9689L150.179 87.998C150.139 87.998 150.101 87.9822 150.073 87.954C150.044 87.9257 150.029 87.8875 150.029 87.8476C150.029 87.6922 150.029 87.4495 150.024 87.2942Z" fill="#363E77"/>
<path d="M150.917 87.4009C150.915 87.3832 150.917 87.3652 150.923 87.3484C150.929 87.3316 150.938 87.3163 150.951 87.3038C150.964 87.2913 150.979 87.2814 150.996 87.2747C151.012 87.268 151.03 87.2647 151.048 87.265H152.437C152.454 87.2643 152.472 87.2672 152.488 87.2735C152.505 87.2798 152.52 87.2894 152.533 87.3016C152.545 87.3138 152.555 87.3285 152.562 87.3447C152.569 87.361 152.573 87.3784 152.573 87.396C152.573 87.4308 152.559 87.4641 152.534 87.4887C152.51 87.5133 152.476 87.5271 152.442 87.5271H151.048C151.014 87.5269 150.98 87.5129 150.956 87.4883C150.942 87.4762 150.932 87.4612 150.925 87.4443C150.918 87.4275 150.916 87.4093 150.917 87.3912V87.4009Z" fill="white"/>
<path d="M154.621 44.7612C161.834 44.7612 167.681 39.9777 167.681 34.077C167.681 28.1763 161.834 23.3928 154.621 23.3928C147.409 23.3928 141.562 28.1763 141.562 34.077C141.562 39.9777 147.409 44.7612 154.621 44.7612Z" fill="#E6B489"/>
<path d="M145.703 26.2812C148.278 24.3598 151.413 23.3366 154.626 23.3687C160.413 23.3687 165.307 26.456 167.04 30.7325C159.67 23.4269 150.349 24.9706 145.703 26.2812Z" fill="#F3CDA1"/>
<path d="M154.98 52.8046C166.821 52.8046 176.419 47.4604 176.419 40.868C176.419 34.2756 166.821 28.9314 154.98 28.9314C143.14 28.9314 133.542 34.2756 133.542 40.868C133.542 47.4604 143.14 52.8046 154.98 52.8046Z" fill="#C68F6A"/>
<path d="M154.617 48.2271C162.998 48.2271 169.793 45.1909 169.793 41.4457C169.793 37.7004 162.998 34.6643 154.617 34.6643C146.235 34.6643 139.44 37.7004 139.44 41.4457C139.44 45.1909 146.235 48.2271 154.617 48.2271Z" fill="#AE654F"/>
<path d="M154.238 29.7471C160.67 29.7471 165.889 35.9945 165.889 43.6885C165.889 51.3824 161.122 57.7221 154.238 57.625C147.354 57.5279 142.586 51.3776 142.586 43.6885C142.586 35.9993 147.805 29.7471 154.238 29.7471Z" fill="#FDA092"/>
<path d="M148.266 34.1061C145.921 36.3342 144.766 45.8679 146.159 51.193C146.776 53.5376 144.305 53.2561 144.217 55.2706C144.009 59.154 145.14 61.5811 145.14 61.5811C145.14 61.5811 137.489 58.7705 137.372 54.625C137.29 52.0474 139.091 50.9018 139.683 48.7756C140.275 46.6495 139.091 44.7515 139.683 42.6107C140.275 40.47 141.499 38.4749 143.3 36.3002C144.13 35.2954 148.3 34.0867 148.3 34.0867L148.266 34.1061Z" fill="#8D4A54"/>
<path d="M162.214 34.6694C162.491 34.6985 164.375 44.1011 164.049 48.9457C163.899 51.1544 160.894 53.0378 161.967 54.9795C163.185 57.1882 163.083 59.5134 161.894 62.1541C161.894 62.1541 166.71 62.0764 169.593 57.0037C170.462 55.4795 168.258 54.1883 168.186 52.7174C168.118 51.3437 169.841 51.0864 169.525 47.4894C169.2 43.8002 166.685 36.1111 166.685 36.1111L162.214 34.6548V34.6694Z" fill="#8D4A54"/>
<path d="M138.989 40.8584C144.79 33.3926 164.039 31.6353 169.797 40.8924C170.768 38.4216 169.584 35.7469 166.559 32.8877L158.893 30.2033C155.311 28.4461 149.509 29.3781 144.329 31.5965C140.931 35.043 138.989 38.1692 138.989 40.8584Z" fill="#C68F6A"/>
<path d="M149.829 43.8341C150.143 43.8341 150.397 43.4385 150.397 42.9506C150.397 42.4627 150.143 42.0671 149.829 42.0671C149.516 42.0671 149.261 42.4627 149.261 42.9506C149.261 43.4385 149.516 43.8341 149.829 43.8341Z" fill="#30385B"/>
<path d="M159.423 43.8341C159.736 43.8341 159.991 43.4385 159.991 42.9506C159.991 42.4627 159.736 42.0671 159.423 42.0671C159.109 42.0671 158.855 42.4627 158.855 42.9506C158.855 43.4385 159.109 43.8341 159.423 43.8341Z" fill="#30385B"/>
<path d="M157.792 37.5575L158.073 36.4362C158.49 36.2308 158.949 36.1267 159.413 36.1326C159.878 36.1384 160.334 36.2539 160.746 36.4697C161.157 36.6855 161.512 36.9955 161.78 37.3744C162.049 37.7532 162.224 38.1902 162.292 38.6497C161.727 38.0528 161.002 37.6321 160.203 37.4383C159.405 37.2445 158.567 37.2859 157.792 37.5575Z" fill="#8D4A54"/>
<path d="M152.097 37.5575L151.815 36.4362C151.399 36.2308 150.939 36.1267 150.475 36.1326C150.01 36.1384 149.554 36.2539 149.143 36.4697C148.731 36.6855 148.377 36.9955 148.108 37.3744C147.839 37.7532 147.664 38.1902 147.596 38.6497C148.161 38.0528 148.887 37.6321 149.685 37.4383C150.484 37.2445 151.321 37.2859 152.097 37.5575Z" fill="#8D4A54"/>
<path d="M156.306 40.572C155.51 43.6108 156.418 44.8923 156.534 45.6738C156.536 45.9563 156.467 46.2347 156.333 46.4833C156.199 46.7319 156.004 46.9427 155.767 47.0961" stroke="#D04949" stroke-width="1.27" stroke-linecap="round" stroke-linejoin="round"/>
<path d="M151.296 48.2319C153.484 48.6425 155.712 48.8054 157.937 48.7174C157.937 48.7174 157.806 53.5473 154.141 53.1202C150.917 52.727 151.296 48.2319 151.296 48.2319Z" fill="white"/>
</g>
<g clip-path="url(#clip1_0_1)">
<path d="M89.0108 199.995C110.544 199.995 128 198.179 128 195.938C128 193.697 110.544 191.88 89.0108 191.88C67.4776 191.88 50.0215 193.697 50.0215 195.938C50.0215 198.179 67.4776 199.995 89.0108 199.995Z" fill="#B4CFD6"/>
<path d="M113.899 182.121C113.899 182.121 106.203 188.943 112.595 196.647L128 181.196L121.161 176.107L113.899 182.121Z" fill="#2B2738"/>
<path d="M110.952 194.075C111.38 195.003 111.933 195.869 112.595 196.647L128 181.196L125.998 179.707L110.952 194.075Z" fill="#F0EDF4"/>
<path d="M69.5696 136.431L66.7297 187.411L76.5062 189.372L84.2482 139.106L69.5509 136.412L69.5696 136.431Z" fill="#FDA092"/>
<path d="M69.2065 142.94C73.727 144.529 78.4123 145.598 83.1729 146.129L84.2529 139.125L69.5557 136.431L69.2065 142.94Z" fill="#EF7D78"/>
<path d="M91.5991 137.733C91.5991 137.733 94.2481 151.984 97.1856 158.526C100.612 166.123 113.2 183.017 113.2 183.017C116.459 182.438 119.667 178.974 121.706 176.746C121.706 176.746 111.822 161.44 108.717 154.8C106.082 149.197 105.146 136.533 105.146 136.533L91.5991 137.733Z" fill="#FDA092"/>
<path d="M93.4613 146.437C97.7268 146.207 101.954 145.508 106.068 144.355C105.407 140.152 105.137 136.548 105.137 136.548L91.5991 137.734C91.5991 137.734 92.3393 141.717 93.4613 146.437Z" fill="#EF7D78"/>
<path d="M67.5957 186.576C67.5957 186.576 57.5493 184.442 55.1843 194.182L76.739 197.385V188.845L67.5957 186.576Z" fill="#2B2738"/>
<path d="M56.269 191.324C55.7807 192.223 55.4159 193.185 55.1843 194.182L76.739 197.385V194.882L56.269 191.324Z" fill="#F0EDF4"/>
<path d="M73.1823 53.1896C70.6218 53.1896 68.5269 50.9482 68.5269 48.212C68.5269 45.4757 70.6171 43.2297 73.1823 43.2297H118.07V53.1896H73.1823Z" fill="#593A58"/>
<path d="M118.503 53.1896C121.082 53.1896 123.172 50.959 123.172 48.2073C123.172 45.4557 121.082 43.2251 118.503 43.2251C115.924 43.2251 113.833 45.4557 113.833 48.2073C113.833 50.959 115.924 53.1896 118.503 53.1896Z" fill="#472F48"/>
<path d="M124.145 59.5025C124.145 57.829 123.483 56.2239 122.303 55.0401C121.124 53.8564 119.524 53.1907 117.856 53.1895H94.113V79.6042H120.346C121.355 79.6042 122.323 79.2023 123.036 78.4869C123.749 77.7715 124.15 76.8011 124.15 75.7893V59.5025H124.145Z" fill="#89A7E2"/>
<path d="M121.664 61.2582C121.664 59.4006 120.928 57.6191 119.619 56.3056C118.309 54.9921 116.533 54.2542 114.681 54.2542H86.478C84.626 54.2542 82.8498 54.9921 81.5402 56.3056C80.2306 57.6191 79.4949 59.4006 79.4949 61.2582V103.227C79.4949 105.084 80.2306 106.866 81.5402 108.179C82.8498 109.493 84.626 110.231 86.478 110.231H114.695C116.547 110.231 118.323 109.493 119.632 108.179C120.942 106.866 121.678 105.084 121.678 103.227V61.2582H121.664Z" fill="#7396DD"/>
<path d="M113.014 61.2582C113.014 59.4006 112.278 57.6191 110.969 56.3056C109.659 54.9921 107.883 54.2542 106.031 54.2542H77.8049C75.9529 54.2542 74.1767 54.9921 72.8671 56.3056C71.5575 57.6191 70.8218 59.4006 70.8218 61.2582V103.227C70.8218 105.084 71.5575 106.866 72.8671 108.179C74.1767 109.493 75.9529 110.231 77.8049 110.231H106.031C107.883 110.231 109.659 109.493 110.969 108.179C112.278 106.866 113.014 105.084 113.014 103.227V61.2582Z" fill="#6277C5"/>
<path d="M123.168 96.3301H114.411V106.659H120.556C121.248 106.659 121.913 106.383 122.403 105.892C122.892 105.4 123.168 104.734 123.168 104.039V96.3301Z" fill="#6277C5"/>
<path d="M74.2017 102.671L69.9327 106.505L66.7297 139.858C66.7297 139.858 78.7501 144.224 87.2137 142.585L88.4986 130.183L90.668 142.347C90.668 142.347 105.854 141.581 111.548 137.678L107.013 102.218L74.1924 102.685L74.2017 102.671Z" fill="#E4B586"/>
<path d="M108.238 111.73L107.023 102.223L74.2017 102.69L69.9327 106.523L69.5696 110.287C80.0816 114.723 89.0666 114.578 108.238 111.748V111.73Z" fill="#CF9168"/>
<path d="M87.3719 141.04L88.466 130.51L88.4334 130.081L87.6187 124.533L81.3059 123.996L87.3719 141.04Z" fill="#CF9168"/>
<path d="M77.0368 59.199L76.1849 53.04C73.5674 54.2835 71.2752 56.1221 69.4904 58.4098C67.2232 61.3329 63.1497 69.1728 63.1497 69.1728L72.9261 72.5441L77.0368 59.199Z" fill="#E55950"/>
<path d="M84.8209 49.4492C84.8209 49.4492 73.2288 53.1847 72.1674 56.2759C70.2214 61.9539 68.6758 109.04 68.6758 109.04C72.2776 110.492 76.0574 111.454 79.914 111.898L82.0835 108.064L85.4819 111.912C93.3962 111.146 101.092 109.549 108.326 106.617C108.326 106.617 107.507 57.6627 102.972 54.8891C93.2565 48.9496 84.8162 49.4679 84.8162 49.4679L84.8209 49.4492Z" fill="#E43B3F"/>
<path d="M82.3255 63.8544C82.8217 63.8544 83.224 63.4593 83.224 62.9719C83.224 62.4845 82.8217 62.0894 82.3255 62.0894C81.8293 62.0894 81.427 62.4845 81.427 62.9719C81.427 63.4593 81.8293 63.8544 82.3255 63.8544Z" fill="#FED6CE"/>
<path d="M81.0826 97.0023C81.5788 97.0023 81.9811 96.6072 81.9811 96.1198C81.9811 95.6324 81.5788 95.2373 81.0826 95.2373C80.5864 95.2373 80.1841 95.6324 80.1841 96.1198C80.1841 96.6072 80.5864 97.0023 81.0826 97.0023Z" fill="#FED6CE"/>
<path d="M81.4271 105.277C81.9233 105.277 82.3256 104.881 82.3256 104.394C82.3256 103.907 81.9233 103.511 81.4271 103.511C80.9308 103.511 80.5286 103.907 80.5286 104.394C80.5286 104.881 80.9308 105.277 81.4271 105.277Z" fill="#FED6CE"/>
<path d="M113.238 71.2415L119.406 85.1796L111.618 88.7096L104.262 77.391L113.238 71.2415Z" fill="#EF7D78"/>
<path d="M101.697 54.2494C101.697 54.2494 104.29 54.9031 108.326 59.6799C110.849 62.673 116.925 73.9449 116.925 73.9449L104.253 80.6501C104.253 80.6501 98.1122 67.0015 101.697 54.2354V54.2494Z" fill="#E55950"/>
<path d="M103.927 54.749C98.8058 69.6164 98.3123 83.7786 110.146 94.0653L109.29 97.544C91.804 82.8588 89.6904 70.5035 96.357 51.7839C98.5823 52.3116 101.92 53.1054 103.927 54.749Z" fill="#59649A"/>
<path d="M68.5454 97.5442C81.3153 98.6462 94.7742 98.2446 108.368 97.5442L108.624 101.495C94.5088 102.013 80.738 102.293 68.5454 101.495V97.5442Z" fill="#59649A"/>
<path d="M85.7286 99.1598C85.7292 98.9475 85.6879 98.7371 85.6072 98.5408C85.5265 98.3445 85.4079 98.1662 85.2582 98.016C85.1085 97.8659 84.9306 97.7469 84.7349 97.6659C84.5392 97.585 84.3295 97.5436 84.1178 97.5442H78.2426C78.0309 97.5436 77.8212 97.585 77.6255 97.6659C77.4298 97.7469 77.252 97.8659 77.1023 98.016C76.9526 98.1662 76.8339 98.3445 76.7532 98.5408C76.6725 98.7371 76.6312 98.9475 76.6318 99.1598V101.177C76.6312 101.389 76.6725 101.6 76.7532 101.796C76.8339 101.992 76.9526 102.171 77.1023 102.321C77.252 102.471 77.4298 102.59 77.6255 102.671C77.8212 102.752 78.0309 102.793 78.2426 102.793H84.1178C84.3295 102.793 84.5392 102.752 84.7349 102.671C84.9306 102.59 85.1085 102.471 85.2582 102.321C85.4079 102.171 85.5265 101.992 85.6072 101.796C85.6879 101.6 85.7292 101.389 85.7286 101.177V99.1598Z" fill="#6277C5"/>
<path d="M78.3544 52.0874C72.5351 63.0044 70.226 76.1348 69.3182 93.4302L68.8992 90.2457C68.0706 74.0756 68.6758 63.1259 72.577 55.0852C74.2305 53.6286 76.2138 52.5994 78.3544 52.0874Z" fill="#59649A"/>
<path d="M73.8711 96.3301C66.0314 87.8785 56.795 88.9151 56.795 88.9151C54.0481 80.5779 50.7829 72.4216 47.0186 64.4942C55.8173 59.7221 66.9206 66.9877 67.7865 67.576C68.5407 66.7448 81.4595 61.9727 95.3746 64.695L99.8206 91.7775C99.8206 91.7775 79.0666 90.3767 73.9503 96.2694L73.8711 96.3301Z" fill="#EBEBEB"/>
<path d="M87.4092 64.8911C85.7146 68.099 82.6467 74.4307 82.4465 78.4324C82.2975 81.4535 88.4381 83.1018 87.5675 85.9034C87.1438 87.2809 84.6532 89.5455 82.2277 91.5067C80.9383 91.7334 79.6682 92.0597 78.4289 92.4826C78.6663 90.5635 80.8683 87.7338 79.8255 87.2715C78.7827 86.8093 73.5686 89.7743 72.144 89.7043C71.1524 89.6529 72.1952 87.2435 71.2828 86.8419C70.3703 86.4404 67.4234 86.7953 66.5482 87.2342C65.8638 87.5797 66.4411 88.6724 66.0407 89.4802L65.5752 89.2794L65.1422 89.13C65.0771 87.6684 65.5473 86.3984 65.2912 85.0676C64.9374 83.2278 64.2577 80.2067 63.0333 78.0915C61.7019 75.8035 57.8425 73.5155 57.3164 71.3302C56.7904 69.1449 58.89 67.053 59.8723 64.9892L61.3434 65.4561L62.3536 65.867C61.8601 67.1418 60.3285 67.8375 60.4914 69.0609C60.6544 70.2843 62.2326 71.9886 63.3406 73.2633C64.4486 74.5381 66.1757 75.3459 67.1627 76.7654C68.4848 78.6658 69.2064 83.7695 71.2548 84.6613C73.3032 85.5532 77.7724 83.6107 79.467 82.1165C81.1616 80.6223 80.994 77.8861 81.5154 75.7054C82.1951 72.8571 83.0936 67.4079 83.5592 65.0265L85.1327 64.9098L87.4046 64.8538L87.4092 64.8911Z" fill="#B0A91B"/>
<path d="M95.7005 70.8352C93.303 73.1699 90.3235 76.4385 89.8114 78.3062C88.9734 81.3647 93.8616 84.2504 93.4846 87.0754C93.3495 88.0793 92.5535 89.4101 91.5851 90.6895H92.195H95.3095L95.1698 89.8723C94.8998 88.2054 93.4659 82.985 93.6847 80.683C93.857 78.8899 96.1847 78.2502 96.478 76.0556L95.6912 70.8539L95.7005 70.8352Z" fill="#B0A91B"/>
<path d="M54.3557 79.791C56.9209 80.0945 60.4636 79.6416 62.0512 80.6642C63.6387 81.6868 63.6293 84.6052 63.8761 85.9359C64.0437 86.8325 63.5316 87.6356 63.5223 88.6535C61.9081 88.2251 60.2344 88.0674 58.5689 88.1866C58.662 86.076 58.662 83.788 58.2802 83.0923C57.8985 82.3965 56.6415 82.6253 55.5522 83.0316L55.3753 82.5133L54.3557 79.791Z" fill="#B0A91B"/>
<path d="M51.5995 64.0645C51.6647 64.5314 51.1991 64.7275 51.3015 65.059C51.7112 66.3711 52.5352 70.0413 54.0576 71.9324C55.5799 73.8235 59.3741 75.4064 60.4355 76.4337C60.8359 76.8213 60.9755 77.9746 60.4355 78.1053C59.3135 78.3762 55.957 78.1053 53.7131 78.04C52.0557 73.6974 50.2261 69.3269 48.3127 64.933C49.3485 64.4509 50.4613 64.1568 51.5995 64.0645Z" fill="#B0A91B"/>
<path d="M87.4093 64.8909C89.9251 64.8702 92.4365 65.1064 94.9045 65.596L95.7006 70.835C93.3031 73.1697 90.3236 76.4383 89.8115 78.3061C88.9735 81.3645 93.8617 84.2502 93.4846 87.0752C93.3496 88.0791 92.5535 89.4099 91.5852 90.6893L88.1914 90.8154C85.9288 91.0022 86.0732 90.9928 83.9549 91.245L82.2324 91.5392C84.6579 89.5827 87.1486 87.3367 87.5722 85.9359C88.4381 83.1342 82.2976 81.4766 82.4512 78.4648C82.6514 74.4538 85.71 68.1221 87.4139 64.9236L87.4093 64.8909Z" fill="#7999C3"/>
<path d="M51.5995 64.0645C54.3935 63.7857 57.2146 64.1039 59.8769 64.9983C58.8946 67.0622 56.795 69.1588 57.3211 71.3394C57.8472 73.52 61.7065 75.8126 63.038 78.1006C64.2623 80.2159 64.942 83.237 65.2959 85.0767C65.5519 86.4075 65.0817 87.6776 65.1469 89.1391L64.132 88.7936L63.5547 88.6535C63.5547 87.6355 64.0761 86.8324 63.9085 85.9359C63.6618 84.6051 63.6432 81.6727 62.0836 80.6641C60.524 79.6556 56.9626 80.0945 54.3882 79.791L53.7271 78.0399C55.971 78.1053 59.3136 78.3761 60.4495 78.1053C60.9896 77.9746 60.8499 76.8212 60.4495 76.4337C59.3881 75.4064 55.5939 73.8328 54.0716 71.9324C52.5493 70.0319 51.7439 66.3711 51.3156 65.059C51.2131 64.7275 51.6787 64.5501 51.6135 64.0645H51.5995Z" fill="#7999C3"/>
<path d="M96.4873 76.0369L98.7312 90.8155C98.7312 90.8155 97.3905 90.7128 95.3095 90.6708L95.1698 89.8536C94.8998 88.1866 93.4659 82.9663 93.6847 80.6642C93.857 78.8712 96.1847 78.2315 96.478 76.0369H96.4873Z" fill="#8F8411"/>
<path d="M83.5639 65.073C83.0984 67.4544 82.1999 72.9036 81.5202 75.7519C80.9988 77.9325 81.1617 80.6921 79.4718 82.163C77.7819 83.6339 73.3126 85.5997 71.2596 84.7078C69.2065 83.816 68.4663 78.7123 67.1674 76.8119C66.1805 75.411 64.458 74.5939 63.3453 73.3098C62.2327 72.0257 60.6591 70.3354 60.4962 69.1074C60.3333 67.8793 61.8649 67.1882 62.3584 65.9135C64.2351 66.6713 66.0448 67.5866 67.768 68.6498C72.8465 66.7422 78.1609 65.5388 83.5639 65.073Z" fill="#8F8411"/>
<path d="M66.0362 89.494C66.4365 88.6862 65.8593 87.5936 66.5436 87.2481C67.4188 86.8091 70.3471 86.4449 71.2782 86.8558C72.2093 87.2667 71.1478 89.6575 72.1394 89.7182C73.564 89.7882 78.7734 86.8185 79.8209 87.2854C80.8684 87.7523 78.671 90.5773 78.4243 92.4964C76.4876 93.1502 74.8768 94.042 73.862 95.2421C71.719 92.7545 69.0396 90.7889 66.0269 89.494H66.0362Z" fill="#8F8411"/>
<path d="M55.5706 83.0222C56.6599 82.6159 57.8983 82.3684 58.2986 83.0829C58.699 83.7973 58.6804 86.0666 58.5873 88.1772L57.3629 88.2706L55.5706 83.0222Z" fill="#8F8411"/>
<path d="M73.9085 96.3068V96.3301C66.0687 87.8785 56.8323 88.9151 56.8323 88.9151C54.0855 80.5779 50.8202 72.4216 47.0559 64.4942C55.8547 59.7221 66.9579 66.9877 67.8238 67.576L67.8518 67.548L73.9085 96.3068Z" fill="black" fill-opacity="0.16"/>
<path d="M105.7 76.163C105.7 76.163 97.4324 66.474 95.4073 66.4133C92.2416 66.3059 90.3235 67.4406 90.4399 68.4585C90.6029 69.9107 94.6298 69.243 94.6298 69.243L96.3058 70.6438C96.3058 70.6438 93.047 70.4243 91.8505 71.1107C90.8636 71.6711 88.5545 74.2906 88.899 75.486C88.9819 75.7655 89.1592 76.0073 89.4004 76.17C89.6416 76.3327 89.9318 76.4062 90.2211 76.3778C90.2211 76.3778 89.7556 77.3117 90.2211 78.0121C90.7798 78.8853 92.1252 78.1289 92.1252 78.1289C92.0338 78.2177 91.9652 78.3272 91.925 78.4483C91.8848 78.5694 91.8743 78.6984 91.8944 78.8244C91.9145 78.9504 91.9646 79.0697 92.0404 79.1721C92.1163 79.2746 92.2156 79.3572 92.33 79.4129C92.9771 79.8565 94.3505 79.0301 95.0023 78.946C95.5709 78.9115 96.1338 79.0766 96.5944 79.4129C96.5944 79.4129 98.6801 82.7376 103.494 81.8831L105.682 76.2051L105.7 76.163Z" fill="#FDA092"/>
<path d="M90.5005 75.9435C92.1718 73.4361 93.9362 72.8011 96.5526 73.24" stroke="#E43B3F" stroke-width="1.27" stroke-linecap="round" stroke-linejoin="round"/>
<path d="M92.2927 77.7086C93.9594 75.2011 95.5981 75.4252 97.5115 75.9435" stroke="#E43B3F" stroke-width="1.27" stroke-linecap="round" stroke-linejoin="round"/>
<path d="M104.262 75.3926C104.262 75.3926 113.997 80.3608 118.131 83.2045C119.783 84.3438 121.459 90.4234 119.22 93.6873C117.716 95.8819 113.708 95.5317 110.291 93.2904C107.432 91.4226 102.349 80.683 102.349 80.683L104.262 75.4113V75.3926Z" fill="#FDA092"/>
<path d="M48.8109 72.1378C48.3733 72.3199 46.9487 73.039 48.4431 74.4025C48.7374 74.645 49.078 74.8245 49.4441 74.9301C48.9785 75.3084 48.3686 76.0881 49.7699 77.022C50.1491 77.2445 50.5713 77.3831 51.0083 77.4283C50.5707 77.7645 49.6675 78.6937 51.3528 79.6416C52.8472 80.4774 57.0976 79.6416 56.7578 78.2641C56.6274 77.7224 54.7978 77.4843 53.2755 77.3816C54.4393 77.1761 55.3844 76.6998 55.282 76.0274C55.2215 75.6072 54.16 75.299 52.9868 75.0936C53.6153 74.9255 54.0529 74.6266 54.0669 74.1877C54.0809 73.7488 53.0287 73.2865 51.8742 72.9036C52.6051 72.9036 53.1777 72.6935 53.3174 72.2312C53.606 71.2973 48.8668 69.1868 48.8668 69.1868C48.8668 69.1868 46.5391 69.4436 47.7821 71.3347C48.0554 71.6852 48.4081 71.9653 48.8109 72.1518V72.1378Z" fill="#FDA092"/>
<path d="M91.3989 42.3706C91.3989 42.3706 90.7239 49.0899 93.3169 51.093C89.7835 54.3383 86.0824 55.8231 82.8934 57.7376C82.8934 57.7376 80.9847 53.7593 81.115 51.3639C81.115 51.3639 82.5908 50.7195 81.7761 47.2781L91.3989 42.3706Z" fill="#FDA092"/>
<path d="M81.1104 51.588C81.1104 51.5086 81.1104 51.4386 81.1104 51.3639C81.1104 51.3639 82.5861 50.7195 81.7714 47.2781L91.3942 42.3706C91.2564 43.9891 91.3001 45.618 91.5246 47.2268C89.3831 49.2813 84.979 52.8301 81.1057 51.588H81.1104Z" fill="#EF7D78"/>
<path d="M82.8562 57.7749C86.3518 55.5287 89.6379 52.9704 92.6745 50.1311C94.3226 50.4626 95.9333 50.8922 97.2648 51.9101C96.4896 55.252 94.8704 58.3378 92.5628 60.8707C89.4111 58.9563 87.2183 58.1344 82.8562 57.7749Z" fill="#E55950"/>
<path d="M81.8226 50.4673C81.6263 52.938 81.9809 55.4215 82.8608 57.7375C80.0908 57.8029 76.9251 58.3165 74.197 60.4271C74.8022 56.869 75.4819 54.8612 77.5117 52.0222C78.6756 51.149 80.0768 50.7148 81.8226 50.4673Z" fill="#E55950"/>
<path d="M73.8711 25.9154C73.8711 25.9154 77.386 16.5486 79.0293 15.2318C80.817 13.7983 84.4389 12.631 86.6456 13.1119C89.3691 13.7096 98.9919 18.2016 99.9369 22.348C100.789 26.0835 98.9593 32.5366 98.9593 32.5366L73.8711 25.9154Z" fill="#E6B489"/>
<path d="M75.6681 21.4469C79.709 21.2788 90.2582 21.615 99.8019 28.5584C99.5879 29.8987 99.3036 31.2266 98.9499 32.5368L73.8711 25.9156C73.8711 25.9156 74.6625 23.805 75.6681 21.4469Z" fill="#584344"/>
<path d="M76.8367 18.846C77.6421 17.151 78.4475 15.6941 79.0201 15.2318C80.8078 13.7983 84.4297 12.631 86.6364 13.1119C87.9678 13.4061 90.9566 14.6295 93.7685 16.2918C85.6355 13.5742 79.7277 16.656 76.8367 18.846Z" fill="#F4CDA8"/>
<path d="M74.0482 36.0062C75.8871 36.6879 76.9299 38.4576 76.3759 39.9565C75.8219 41.4554 73.8806 42.1138 72.037 41.4274C70.1935 40.741 69.1553 38.9759 69.7093 37.477C70.2633 35.9782 72.2046 35.3198 74.0482 36.0062Z" fill="#EF7D78"/>
<path d="M85.6169 25.4114C97.7723 28.3764 107.032 33.284 106.287 36.3564C105.542 39.4289 95.0674 39.5129 82.9168 36.5432C70.7661 33.5735 61.4971 28.6519 62.2699 25.5981C63.0427 22.5444 73.4895 22.4416 85.6402 25.4114H85.6169Z" fill="#C68F6A"/>
<path d="M84.9326 31.6357C93.7779 33.9237 97.6745 36.1043 98.978 36.9354C99.6671 37.3744 91.9297 37.2156 84.4391 35.1704C76.9485 33.1252 71.0128 30.7625 71.2875 29.9267C71.6134 28.9414 76.4969 29.4597 84.9326 31.6357Z" fill="#A26C47"/>
<path d="M76.5247 25.4207L94.5971 30.2768C94.5971 30.2768 95.6678 35.4132 95.2628 37.9673C94.1595 44.9948 86.9436 49.5708 80.8077 49.1972C73.7268 48.777 72.4791 42.8795 73.331 34.4793C73.6185 31.2383 74.717 28.1225 76.5247 25.4207Z" fill="#FDA092"/>
<path d="M92.842 39.639C92.842 39.639 89.3039 35.1237 89.1177 31.7944L96.3196 34.1852L96.2079 37.9207L92.8281 39.6577L92.842 39.639Z" fill="#2B2738"/>
<path d="M75.1142 29.0207C75.1142 29.0207 73.5639 32.2099 73.0984 37.3229C72.4887 34.5672 72.4887 31.711 73.0984 28.9553L75.1142 29.0207Z" fill="#2B2738"/>
<path d="M72.6328 29.3803C72.6328 29.3803 83.5359 29.5297 96.7154 35.7167L96.3337 30.3188L74.8395 24.272L72.6328 29.3803Z" fill="#C68F6A"/>
<path d="M94.858 37.0288C96.7806 36.6225 98.5823 37.5611 98.9315 39.1253C99.2806 40.6896 97.9631 42.2818 96.0451 42.6881C94.1271 43.0943 92.3207 42.1511 91.9716 40.5915C91.6224 39.0319 92.9353 37.4303 94.858 37.0288Z" fill="#FDA092"/>
<path d="M63.8806 28.5866C62.633 27.4986 62.0184 26.476 62.2466 25.5981C62.9914 22.5257 73.4662 22.4416 85.6169 25.4114C89.2009 26.2705 92.7211 27.3782 96.1521 28.7266C73.7176 22.4883 60.4077 23.581 63.8806 28.5866Z" fill="#CFA581"/>
<path d="M76.6411 37.323C76.9419 37.323 77.1858 36.9425 77.1858 36.4731C77.1858 36.0038 76.9419 35.6233 76.6411 35.6233C76.3403 35.6233 76.0964 36.0038 76.0964 36.4731C76.0964 36.9425 76.3403 37.323 76.6411 37.323Z" fill="#30385B"/>
<path d="M84.7742 37.323C85.075 37.323 85.3189 36.9425 85.3189 36.4731C85.3189 36.0038 85.075 35.6233 84.7742 35.6233C84.4734 35.6233 84.2295 36.0038 84.2295 36.4731C84.2295 36.9425 84.4734 37.323 84.7742 37.323Z" fill="#30385B"/>
<path d="M83.48 33.2091L83.629 31.8082C86.1801 31.6495 87.5256 32.6301 88.1075 34.3297C86.7073 33.5108 85.0985 33.1212 83.48 33.2091Z" fill="#2B2738"/>
<path d="M78.1683 33.3212L78.0472 31.9204C75.8452 31.2807 74.4672 32.35 74.0203 34.2551C75.0305 33.2465 76.5249 33.0504 78.1683 33.3212Z" fill="#2B2738"/>
<path d="M78.9084 42.6601C81.2385 42.3844 83.5356 41.8776 85.7659 41.1472C85.7659 41.1472 86.2314 45.0368 83.3032 45.7466C79.9187 46.5731 78.9084 42.6601 78.9084 42.6601Z" fill="white"/>
</g>
<defs>
<clipPath id="clip0_0_1">
<rect width="112" height="192" fill="white" transform="translate(100 8)"/>
</clipPath>
<clipPath id="clip1_0_1">
<rect width="81" height="187" fill="white" transform="translate(47 13)"/>
</clipPath>
</defs>
</svg>
